<?xml version="1.0" encoding="utf-8"?>
<!-- Generator: Adobe Illustrator 24.3.0, SVG Export Plug-In . SVG Version: 6.00 Build 0)  -->
<svg version="1.1" id="Layer_1" xmlns="http://www.w3.org/2000/svg" xmlns:xlink="http://www.w3.org/1999/xlink" x="0px" y="0px"
	 viewBox="0 0 500 500" style="enable-background:new 0 0 500 500;" xml:space="preserve">
<style type="text/css">
	.st0{fill:#EBEBEB;}
	.st1{fill:#F0F0F0;}
	.st2{fill:#E6E6E6;}
	.st3{fill:#E0E0E0;}
	.st4{fill:#FAFAFA;}
	.st5{fill:#F5F5F5;}
	.st6{fill:#FFFFFF;}
	.st7{display:none;}
	.st8{display:inline;}
	.st9{fill:#407BFF;}
	.st10{opacity:0.9;fill:#FFFFFF;enable-background:new    ;}
	.st11{fill:#263238;}
	.st12{fill:#FFC3BD;}
	.st13{opacity:0.5;enable-background:new    ;}
	.st14{opacity:0.2;enable-background:new    ;}
	.st15{fill:#ED847E;}
	.st16{opacity:0.1;enable-background:new    ;}
	.st17{opacity:0.7;fill:#FAFAFA;enable-background:new    ;}
	.st18{opacity:0.9;}
	.st19{opacity:0.1;fill:#263238;enable-background:new    ;}
	.st20{opacity:0.1;fill:#FFFFFF;enable-background:new    ;}
</style>
<g id="Background_Complete">
	<g>
		<rect x="-62.9" y="443.2" class="st0" width="578.9" height="0.2"/>
		<rect x="58.1" y="451.1" class="st0" width="38.3" height="0.2"/>
		<rect x="135.2" y="461.8" class="st0" width="47.1" height="0.2"/>
		<rect x="-2.1" y="458" class="st0" width="59.2" height="0.2"/>
		<rect x="350.3" y="453.1" class="st0" width="107.8" height="0.2"/>
		<rect x="332.5" y="453.1" class="st0" width="7.3" height="0.2"/>
		<rect x="258.1" y="457.9" class="st0" width="48.9" height="0.2"/>
		<path class="st0" d="M211.5,391.6H-12c-3.6,0-6.6-3-6.6-6.6V70.8c0-3.6,3-6.6,6.6-6.6h223.6c3.6,0,6.6,3,6.6,6.6V385
			C218.1,388.6,215.3,391.6,211.5,391.6z M-12,64.4c-3.5,0-6.4,2.8-6.4,6.4V385c0,3.5,2.8,6.4,6.4,6.4h223.6c3.5,0,6.4-2.8,6.4-6.4
			V70.8c0-3.5-2.8-6.4-6.4-6.4H-12z"/>
		<path class="st0" d="M462,391.6H238.4c-3.6,0-6.6-3-6.6-6.6V70.8c0-3.6,3-6.6,6.6-6.6H462c3.6,0,6.6,3,6.6,6.6V385
			C468.6,388.6,465.7,391.6,462,391.6z M238.4,64.4c-3.5,0-6.4,2.8-6.4,6.4V385c0,3.5,2.8,6.4,6.4,6.4H462c3.5,0,6.4-2.8,6.4-6.4
			V70.8c0-3.5-2.8-6.4-6.4-6.4H238.4z"/>
	</g>
	<g>
		<g>
			<g>
				<rect x="110.5" y="210.3" class="st1" width="93.4" height="232.9"/>
				<rect x="115.6" y="216.1" class="st2" width="83.2" height="68.5"/>
				<rect x="115.5" y="290.9" class="st2" width="83.2" height="68.5"/>
				<rect x="115.5" y="365.6" class="st2" width="83.2" height="68.5"/>
				<rect x="166" y="216.1" class="st3" width="32.8" height="68.5"/>
				<rect x="166" y="290.9" class="st3" width="32.8" height="68.5"/>
				<g>
					<g>
						<rect x="128.6" y="332.1" class="st4" width="22.7" height="27.4"/>
						<rect x="119.1" y="332" class="st1" width="9.6" height="27.4"/>
					</g>
					<g>
						<rect x="165.4" y="332.1" class="st4" width="22.7" height="27.4"/>
						<rect x="155.7" y="332" class="st1" width="9.6" height="27.4"/>
					</g>
					<g>
						<rect x="147.4" y="304.6" class="st4" width="22.7" height="27.4"/>
						<rect x="137.8" y="304.6" class="st1" width="9.6" height="27.4"/>
					</g>
				</g>
				<rect x="166" y="365.6" class="st3" width="32.8" height="68.5"/>
				<rect x="85.1" y="210.3" class="st5" width="25.4" height="232.9"/>
			</g>
			<rect x="125.5" y="375.5" class="st1" width="67.6" height="58.7"/>
			<rect x="115.6" y="375.4" class="st3" width="10" height="58.7"/>
			<rect x="125.5" y="226" class="st1" width="67.6" height="58.7"/>
			<rect x="115.6" y="226" class="st3" width="10" height="58.7"/>
		</g>
		<g>
			<rect x="269.3" y="102" class="st4" width="161" height="341.2"/>
			<rect x="268.7" y="102" class="st1" width="0.6" height="341.2"/>
			<rect x="280.9" y="113.1" class="st2" width="131.5" height="330.1"/>
			<rect x="284.3" y="113.1" class="st1" width="135.2" height="330.1"/>
			<polygon class="st3" points="409.6,280.9 409.6,285.1 413.8,280.9 			"/>
			<rect x="294" y="123.1" class="st4" width="115.5" height="310.3"/>
			<path class="st5" d="M388.1,279.3c-1.7,0-3.2,1.4-3.2,3.2c0,1.7,1.4,3.2,3.2,3.2h20.3v-6.4h-20.3V279.3z"/>
			<polygon class="st6" points="319.5,433.4 354.7,123.1 378.4,123.1 343.2,433.4 			"/>
			<polygon class="st6" points="348.3,433.4 383.6,123.1 392.7,123.1 357.5,433.4 			"/>
			<rect x="408.4" y="123" class="st2" width="1.3" height="310.3"/>
			<path class="st0" d="M412.7,281.4h-20.3c-1.7,0-3.2-1.4-3.2-3.2l0,0c0-1.7,1.4-3.2,3.2-3.2h20.3c1.7,0,3.2,1.4,3.2,3.2l0,0
				C415.9,280,414.4,281.4,412.7,281.4z"/>
		</g>
		<g>
			<g>
				<g>
					<rect x="11.2" y="141.5" class="st3" width="56.8" height="90.4"/>
					<rect x="12.8" y="141.5" class="st5" width="58.8" height="90.4"/>
					<rect x="17.7" y="148.1" class="st6" width="48.9" height="77.2"/>
				</g>
			</g>
			<g>
				<g>
					<rect x="91.5" y="98" class="st3" width="56.8" height="90.4"/>
					<rect x="93" y="98" class="st5" width="58.8" height="90.4"/>
					<rect x="97.9" y="104.5" class="st6" width="48.9" height="77.2"/>
				</g>
			</g>
		</g>
	</g>
</g>
<g id="Background_Simple" class="st7">
	<g class="st8">
		<path class="st9" d="M353.1,175c-19.5-46-69.5-79.1-117.9-93.7C109.7,43,52.6,220.6,92,259.4c33.4,42.1,74.6,16.5,105.1,25.8
			C368.6,338.4,370,213.2,353.1,175z"/>
		<path class="st10" d="M353.1,175c-19.5-46-69.5-79.1-117.9-93.7C109.7,43,52.6,220.6,92,259.4c33.4,42.1,74.6,16.5,105.1,25.8
			C368.6,338.4,370,213.2,353.1,175z"/>
	</g>
</g>
<g id="Shadow_1_">
	<ellipse id="_x3C_Path_x3E__120_" class="st5" cx="226.6" cy="482.4" rx="224.5" ry="13.1"/>
</g>
<g id="Character">
	<g>
		<path class="st11" d="M126.6,145.4c2.5,3.2,2.8,7.4,0.1,13.8c-1.2,2.7-2.7,5.3-6,0.8s-6.3-12.7-1.2-13.4
			C124.6,145.9,126.6,145.4,126.6,145.4z"/>
		<polygon class="st12" points="125.5,471.6 134.1,471.6 134.6,451.7 125.9,451.7 		"/>
		<polygon class="st12" points="61.6,456.3 69.9,458.4 78.6,440.1 70.3,437.9 		"/>
		<path class="st11" d="M71.1,457.6l-9.1-3.1c-0.3-0.1-0.7,0-0.9,0.3l-3.9,6.7c-0.3,0.7,0,1.6,0.7,1.9c3.2,1,4.9,1.4,8.8,2.8
			c2.4,0.8,9.5,3.8,13,5c3.4,1.2,5-2.1,3.6-2.9c-5.8-3.5-9.6-7.2-11.1-9.7C72,458,71.6,457.7,71.1,457.6z"/>
		<path class="st11" d="M134.1,470.6h-9.4c-0.3,0-0.7,0.2-0.7,0.6l-1.5,7.6c-0.1,0.8,0.5,1.5,1.3,1.5c3.4,0,8.3-0.2,12.5-0.2
			c5,0,6,0.2,11.8,0.2c3.5,0,4.4-3.6,2.9-3.9c-6.7-1.5-9-1.6-14.9-5.2C135.5,470.9,134.8,470.6,134.1,470.6z"/>
		<path class="st12" d="M131.8,199.5l11.7-3.8c0,0,12.2,28.1,16.2,29.9c5.6,2.3,9.8,6.3,16.9,6.9c0.9,1.2,2.5,4.6,2.4,5.9
			c-9.5,3.6-24.2-0.2-28.3-3.9C141.6,226,131.8,199.5,131.8,199.5z"/>
		<path class="st9" d="M129.1,193c-3.4,7.5,10,31.4,10,31.4l17.6-8.1c0,0-3.4-11.7-8.7-21C142.3,185.7,132.7,184.8,129.1,193z"/>
		<path class="st13" d="M129.1,193c-3.4,7.5,10,31.4,10,31.4l17.6-8.1c0,0-3.4-11.7-8.7-21C142.3,185.7,132.7,184.8,129.1,193z"/>
		<path class="st12" d="M175.3,232.5l6.6-3.5l3.4,9.7c0,0-2.2,0.9-8.3,0.2L175.3,232.5z"/>
		<polygon class="st12" points="188.5,226.6 190.6,234.9 185.3,238.9 181.9,229.2 		"/>
		<g>
			<polygon class="st14" points="134.6,451.7 134.3,462 125.8,462 125.9,451.7 			"/>
			<polygon class="st14" points="70.3,437.9 78.6,440.1 74.1,449.5 65.8,447.4 			"/>
		</g>
		<path class="st9" d="M140.3,188.2c0,0,10.8,29.5,2.3,77.9c-13.9,0-39.2,0-46,0c-0.5-7.1,3.1-45-4.5-78.4c0,0,7.9-1.6,15.4-2
			c5.9-0.2,14.4-0.5,19.6,0C133.9,186.4,140.3,188.2,140.3,188.2z"/>
		<path class="st13" d="M140.3,188.2c0,0,10.8,29.5,2.3,77.9c-13.9,0-39.2,0-46,0c-0.5-7.1,3.1-45-4.5-78.4c0,0,7.9-1.6,15.4-2
			c5.9-0.2,14.4-0.5,19.6,0C133.9,186.4,140.3,188.2,140.3,188.2z"/>
		<path class="st14" d="M102.3,195.9c0.9,5.4-0.5,18.5-5.3,33.7c-0.3-11.7-1.4-25.1-4.2-38.7v-0.1
			C95.9,190.7,101.4,190.8,102.3,195.9z"/>
		<path class="st12" d="M109.5,167.6c1.4,6.3,2.2,14.1-2.1,18.3c0,0,2.7,6.4,14.4,6.4c10.7,0,5.2-6.4,5.2-6.4
			c-7.1-1.6-6.9-10.3-5.8-15.3L109.5,167.6z"/>
		<path class="st6" d="M121.8,192.2c-2.1,3.1-2.1,6-2.1,6s-14.8-5.2-14.2-12.7c0,0,2.1-1.3,3.4-2.2
			C108.9,183.3,109.4,189.1,121.8,192.2z"/>
		<path class="st6" d="M121.8,192.2c2.2,3.1,3,5.6,3,5.6s6.5-4.5,4.4-11.9c0,0-1.9-0.8-3.8-1.2C125.4,184.6,126.4,190.6,121.8,192.2
			z"/>
		<path class="st14" d="M121.2,170.6c-0.7,2.9-0.9,7.1,0.3,10.3c-1-0.1-2.1-0.5-3.1-0.9c-4.1-1.9-6-4.7-8.1-9.1
			c-0.2-1.2-0.3-2.2-0.6-3.2L121.2,170.6z"/>
		<g>
			<path class="st12" d="M132,165.2c-0.9,2.1-2.8,3.5-4.5,4.1c-2.7,0.9-4.2-1.5-3.6-4.2c0.6-2.3,2.5-5.7,5.3-5.4
				C131.8,160,133,162.8,132,165.2z"/>
			<path class="st14" d="M132,165.2c-0.9,2.1-2.8,3.5-4.5,4.1c-2.7,0.9-4.2-1.5-3.6-4.2c0.6-2.3,2.5-5.7,5.3-5.4
				C131.8,160,133,162.8,132,165.2z"/>
		</g>
		<path class="st12" d="M105.6,158.4c1.6,8.5,2.1,13.5,6.8,17.5c7.2,5.9,17.1,0.9,18.1-7.8c0.8-7.9-1.9-20.4-10.5-22.9
			C111.5,142.7,104.1,150,105.6,158.4z"/>
		<path class="st11" d="M111.5,148.8c2,3.6,0.9,6-1.7,12.5c-1.2,2.7-3,5.6-6,0.8c-2.9-4.5-7.2-12.7-3.5-13.7
			C105.3,147.3,111.5,148.8,111.5,148.8z"/>
		<path class="st11" d="M109.1,151.1c3.5,1.2,6.3-0.6,6.8-2.2c2.8,1.3,6.4,1.4,7.6-0.2c2.3,0,4.7,0.5,5.9-2.9c1.2-3.4-0.2-6.3-3.9-8
			c-0.1,0.7-2,1.7-3.7,0.5c-1.7-1.3-5-0.9-6.4,0.3c-3.8-0.9-6.5-1.5-8.7,0.9c-3.6-0.7-8,2.5-7.4,5.3c-2.8,3.5-0.1,6.4,2.8,6.8
			C102.7,153.3,108.3,152.6,109.1,151.1z"/>
		<path class="st12" d="M103.1,168.3c1.4,1.9,3.6,2.9,5.4,3c2.8,0.3,3.7-2.3,2.5-4.7c-1-2.2-3.8-5-6.5-4.2
			C101.9,163.2,101.4,166.2,103.1,168.3z"/>
		<path class="st11" d="M112.4,266.1c0,0,0.9,10.8,2.1,25.5c1.3,16.6,3,38.2,3.9,54.6c0,0.1,0,0.1,0,0.2c0.2,3.1,0.3,6,0.5,8.7
			c1.3,26.7,3.9,104.8,3.9,104.8h14.6c0,0,7.3-79.5,7.6-106.9c0.3-26.3-2.4-87-2.4-87H112.4z"/>
		<path class="st9" d="M121.8,455.5c-0.1,0,0.1,4.7,0.1,4.7h16.8l0.6-5.3L121.8,455.5z"/>
		<path class="st14" d="M114.5,291.6c1.3,16.6,3,38.2,3.9,54.6c0,0.1,0,0.1,0,0.2c3.6-15.6,5-35,4.5-66.9L114.5,291.6z"/>
		<path class="st11" d="M126.3,266.1c0,0-8.1,62.2-12.9,86.8c-5.2,27-35,95.6-35,95.6l-15.3-3.9c0,0,21.8-62.6,24.4-89.4
			c2.9-28.9,8.9-89.3,8.9-89.3h29.8V266.1z"/>
		<path class="st9" d="M64.2,440.7c-0.1,0-1.7,4.1-1.7,4.1l16.8,4.3l2.7-4.5L64.2,440.7z"/>
		<path class="st11" d="M118.7,159.5c0.1,0.7,0.5,1.3,0.9,1.2c0.5,0,0.7-0.7,0.7-1.4c-0.1-0.7-0.5-1.3-0.9-1.2
			C118.9,158.2,118.6,158.8,118.7,159.5z"/>
		<path class="st11" d="M126.4,158.6c0.1,0.7,0.5,1.3,0.9,1.2c0.5,0,0.7-0.7,0.7-1.4c-0.1-0.7-0.5-1.3-0.9-1.2
			C126.7,157.4,126.3,157.9,126.4,158.6z"/>
		<path class="st15" d="M124,159.3c0,0,2.1,3.8,4.1,5.6c-1,1.3-3.2,0.9-3.2,0.9L124,159.3z"/>
		<path class="st11" d="M123.1,167.8c0.1,0,0.2-0.1,0.1-0.2c0-0.1-0.1-0.2-0.2-0.2c-3,0.5-4.7-1.5-4.7-1.5c-0.1-0.1-0.2-0.1-0.2,0
			c-0.1,0.1-0.1,0.2,0,0.2C118.1,166.2,119.9,168.3,123.1,167.8z"/>
		<path class="st11" d="M116,157.3c0.1,0,0.2-0.1,0.3-0.2c0.9-1.6,2.4-1.6,2.4-1.6c0.2,0,0.3-0.2,0.3-0.5c0-0.2-0.2-0.3-0.5-0.3
			c-0.1,0-2,0.1-3,2c-0.1,0.2,0,0.5,0.1,0.6C115.9,157.3,116,157.3,116,157.3z"/>
		<path class="st11" d="M129.6,155.5c0.1,0,0.1,0,0.1-0.1c0.2-0.1,0.2-0.3,0.1-0.6c-1.4-1.9-3.2-1.7-3.2-1.7c-0.2,0-0.3,0.2-0.3,0.5
			c0,0.2,0.2,0.3,0.5,0.3l0,0c0.1,0,1.5,0,2.5,1.4C129.2,155.5,129.5,155.6,129.6,155.5z"/>
		<path class="st12" d="M87.7,200.6l11.1,5.9c0,0-12.6,27.3-11,31.4c2.2,5.6,5.8,17.7,9.6,23.7c-0.3,1.4-2.2,4.7-3.4,5.3
			c-8.8-5.4-19-24-19.2-29.4C74.5,225.3,87.7,200.6,87.7,200.6z"/>
		<path class="st9" d="M92.1,187.7c-8.1,1.2-16.8,29.4-16.8,29.4l17.4,9.6c0,0,7.2-13.4,10.7-23.4C107,192.9,100.9,186.4,92.1,187.7
			z"/>
		<path class="st13" d="M92.1,187.7c-8.1,1.2-16.8,29.4-16.8,29.4l17.4,9.6c0,0,7.2-13.4,10.7-23.4
			C107,192.9,100.9,186.4,92.1,187.7z"/>
		<path class="st9" d="M73.3,459.9c0.6,0.2,1.3,0.3,1.7,0.1c0.3-0.1,0.6-0.5,0.7-0.9c0.1-0.3,0-0.6-0.1-0.7c-0.7-0.8-3.9,0-4.3,0
			c-0.1,0-0.1,0.1-0.1,0.1c0,0.1,0,0.1,0.1,0.2C71.8,459.2,72.6,459.7,73.3,459.9z M75,458.6c0.1,0,0.2,0.1,0.2,0.1s0.1,0.1,0,0.2
			c-0.1,0.3-0.2,0.5-0.5,0.6c-0.6,0.2-1.6-0.1-2.9-0.8C73.1,458.5,74.5,458.4,75,458.6z"/>
		<path class="st9" d="M71.3,458.9C71.3,458.9,71.5,458.9,71.3,458.9c1-0.1,3.2-1.4,3.4-2.4c0-0.2,0-0.5-0.5-0.7
			c-0.3-0.1-0.6-0.1-0.9,0c-1.2,0.5-2.1,2.8-2.2,2.9C71.2,458.7,71.2,458.7,71.3,458.9L71.3,458.9z M74,456.1
			C74.1,456.1,74.1,456.2,74,456.1c0.3,0.1,0.3,0.2,0.3,0.3c-0.1,0.6-1.5,1.6-2.5,2c0.3-0.7,1-2,1.7-2.2
			C73.8,456.1,73.9,456.1,74,456.1z"/>
		<path class="st9" d="M137.7,472.1c0.8,0,1.6-0.1,2.1-0.6c0.2-0.2,0.3-0.6,0.3-1c0-0.2-0.1-0.5-0.3-0.6c-1-0.6-4.5,1.2-4.9,1.4
			c-0.1,0-0.1,0.1-0.1,0.2s0.1,0.1,0.1,0.1C135.7,471.9,136.8,472.1,137.7,472.1z M139.2,470.3c0.1,0,0.2,0,0.3,0.1
			c0.1,0,0.1,0.1,0.1,0.2c0,0.2,0,0.5-0.2,0.7c-0.5,0.5-2,0.6-3.8,0.2C136.8,470.9,138.4,470.3,139.2,470.3z"/>
		<path class="st9" d="M135,471.8L135,471.8c1.2-0.5,3.1-2.3,2.9-3.4c0-0.2-0.2-0.5-0.8-0.6c-0.5,0-0.8,0.1-1.2,0.3
			c-1,0.9-1.3,3.2-1.3,3.4s0,0.1,0.1,0.2C134.9,471.8,134.9,471.8,135,471.8z M137,468.4h0.1c0.3,0,0.3,0.2,0.3,0.2
			c0.1,0.6-1.3,2.1-2.3,2.7c0.1-0.7,0.3-2.1,1-2.7C136.5,468.4,136.8,468.4,137,468.4z"/>
		<path class="st12" d="M95.8,260.6l8.1,0.8l-5.7,8.2c0,0-7.1-0.9-7.4-6.6L95.8,260.6z"/>
		<polygon class="st12" points="108.5,264.6 103.1,271.8 98.3,269.6 104,261.5 		"/>
	</g>
</g>
<g id="Nessage">
	<g>
		<g>
			<g>
				<path class="st9" d="M400.5,182.4l8.1,93.9c0.7,7.6-4.1,14.4-10.4,14.9L220,306.5c-6.4,0.6-12.2-5.2-12.7-12.9l-8.1-93.9
					c-0.1-1.9,0-3.6,0.3-5.2c1.3-5.2,5.1-9.3,10-9.6l178.2-15.3c4.9-0.5,9.4,2.9,11.5,7.8C399.9,178.8,400.4,180.5,400.5,182.4z"/>
				<path class="st16" d="M400.5,182.4l8.1,93.9c0.7,7.6-4.1,14.4-10.4,14.9L220,306.5c-6.4,0.6-12.2-5.2-12.7-12.9l-8.1-93.9
					c-0.1-1.9,0-3.6,0.3-5.2c1.3-5.2,5.1-9.3,10-9.6l178.2-15.3c4.9-0.5,9.4,2.9,11.5,7.8C399.9,178.8,400.4,180.5,400.5,182.4z"/>
			</g>
			<rect x="420.7" y="237.7" transform="matrix(0.9928 -0.12 0.12 0.9928 -25.74 52.2864)" class="st9" width="1.3" height="4.3"/>
			
				<rect x="418.9" y="217.2" transform="matrix(0.9928 -0.12 0.12 0.9928 -23.9873 51.9712)" class="st9" width="1.3" height="15.9"/>
			<path class="st9" d="M408.5,165.6l11.7,96.3c0.9,7.9-3.6,14.9-10.2,15.6l-182.7,22.1c-6.5,0.8-12.6-5-13.5-12.9l-11.7-96.3
				c-0.2-1.9-0.1-3.7,0.2-5.4c1.2-5.4,5-9.6,10-10.3l182.7-22.1c5-0.6,9.7,2.5,12,7.5C407.7,161.9,408.3,163.6,408.5,165.6z"/>
			<path class="st16" d="M407,160.4l-82.9,55.8c-8.5,5.7-18.5,6.9-28,3.4l-93.8-34.4c1.2-5.4,5-9.6,10-10.3l182.7-22.1
				C399.8,152.1,404.6,155.3,407,160.4z"/>
			<g>
				<path class="st9" d="M376.1,181.1l-23.9,16l-7.8,5.2l-20.4,13.7c-8.2,5.6-18.1,6.8-27.3,3.6c-0.2-0.1-0.5-0.1-0.7-0.2l-11.5-4.2
					l-25.7-9.4l-12-4.4l-13.7-5l-0.9-24.1l-2.2-53.5l104.5-4.3l39.8,30.2l0.5,10.3L376.1,181.1z"/>
				<path class="st17" d="M376.1,181.1l-23.9,16l-7.8,5.2l-20.4,13.7c-8.2,5.6-18.1,6.8-27.3,3.6c-0.2-0.1-0.5-0.1-0.7-0.2
					l-11.5-4.2l-25.7-9.4l-12-4.4l-13.7-5l-0.9-24.1l-2.2-53.5l104.5-4.3l39.8,30.2l0.5,10.3L376.1,181.1z"/>
				<g class="st18">
					<path class="st6" d="M361.3,155.5l-115.8,4.7c-1.4,0-2.5-1-2.5-2.3l0,0c0-1.4,1-2.5,2.3-2.5l115.8-4.7c1.4,0,2.5,1,2.5,2.3l0,0
						C363.7,154.3,362.6,155.5,361.3,155.5z"/>
					<path class="st6" d="M361.9,170.9l-115.8,4.7c-1.4,0-2.5-1-2.5-2.3l0,0c0-1.4,1-2.5,2.3-2.5l115.8-4.7c1.4,0,2.5,1,2.5,2.3l0,0
						C364.4,169.6,363.2,170.8,361.9,170.9z"/>
					<path class="st6" d="M362.5,186.3L246.7,191c-1.4,0-2.5-1-2.5-2.3l0,0c0-1.4,1-2.5,2.3-2.5l115.8-4.7c1.4,0,2.5,1,2.5,2.3l0,0
						C365,185,363.9,186.2,362.5,186.3z"/>
					<path class="st6" d="M352.2,197.2l-7.8,5.2l-85.6,3.5l-12-4.4c0.1,0,0.2,0,0.3,0L352.2,197.2z"/>
					<path class="st6" d="M320.5,216.3L320.5,216.3c0,1.4-1,2.5-2.3,2.5l-21.4,0.8c-0.2-0.1-0.5-0.1-0.7-0.2l-11.5-4.2l33.3-1.4
						C319.3,213.8,320.5,215,320.5,216.3z"/>
				</g>
				<polygon class="st19" points="374.6,144.8 346.9,143.7 334.7,114.6 				"/>
				<polygon class="st9" points="374.6,144.8 347.7,140.2 334.7,114.6 				"/>
			</g>
		</g>
		<g>
			<path class="st9" d="M427.8,32.5c0,23.5-25.8,46.7-29.6,46.7S368.5,56,368.5,32.5c0-15.7,13.3-28.6,29.6-28.6
				S427.8,16.8,427.8,32.5z"/>
			<path class="st20" d="M392.6,26.7c-5.3,5.9-12.6,8-16.3,4.7c-3.6-3.4-2.2-10.8,3.1-16.7s12.6-8,16.3-4.7
				C399.5,13.3,398.1,20.8,392.6,26.7z"/>
			<path class="st20" d="M376.9,50.4c-0.7-1.7-0.6-3.5,0.5-3.8c1-0.3,2.3,0.7,3,2.5c0.7,1.7,0.6,3.5-0.5,3.8
				C378.8,53.3,377.6,52.2,376.9,50.4z"/>
			<path class="st11" d="M396.9,153.4c-0.2,0-0.5-0.2-0.5-0.5c0-2.2,0.7-3.2,1.4-4.4c0.6-1,1.2-2,1.2-3.8c0-2-0.6-2.9-1.2-3.8
				c-0.7-1-1.4-2.2-1.4-4.4s0.7-3.2,1.4-4.4c0.6-1,1.2-2,1.2-3.8c0-2-0.6-2.9-1.2-3.8c-0.7-1-1.4-2.2-1.4-4.4c0-2.2,0.7-3.2,1.4-4.4
				c0.6-1,1.2-2,1.2-3.8c0-2-0.6-2.9-1.2-3.8c-0.7-1-1.4-2.2-1.4-4.4c0-2.2,0.7-3.2,1.4-4.4c0.6-1,1.2-2,1.2-3.8
				c0-2-0.6-2.9-1.2-3.8c-0.7-1-1.4-2.2-1.4-4.4c0-2.2,0.7-3.2,1.4-4.4c0.6-1,1.2-2,1.2-3.8c0-0.2,0.2-0.5,0.5-0.5
				c0.2,0,0.5,0.2,0.5,0.5c0,2.2-0.7,3.2-1.4,4.4c-0.6,1-1.2,2-1.2,3.8c0,2,0.6,2.9,1.2,3.8c0.7,1,1.4,2.2,1.4,4.4
				c0,2.2-0.7,3.2-1.4,4.4c-0.6,1-1.2,2-1.2,3.8c0,2,0.6,2.9,1.2,3.8c0.7,1,1.4,2.2,1.4,4.4c0,2.2-0.7,3.2-1.4,4.4
				c-0.6,1-1.2,2-1.2,3.8c0,2,0.6,2.9,1.2,3.8c0.7,1,1.4,2.2,1.4,4.4c0,2.2-0.7,3.2-1.4,4.4c-0.6,1-1.2,2-1.2,3.8
				c0,2,0.6,2.9,1.2,3.8c0.7,1,1.4,2.2,1.4,4.4c0,2.2-0.7,3.2-1.4,4.4c-0.6,1-1.2,2-1.2,3.8C397.4,153.2,397.1,153.4,396.9,153.4z"
				/>
			<path class="st9" d="M398.2,78.2c-0.9,0-6.9,5.4-6.9,11h13.9C405.1,83.6,399.1,78.2,398.2,78.2z"/>
			<path class="st11" d="M399.6,79.4h-2.8c-0.2,0-0.3-0.2-0.3-0.3v-0.3c0-0.2,0.2-0.3,0.3-0.3h2.8c0.2,0,0.3,0.2,0.3,0.3v0.3
				C399.9,79.2,399.8,79.4,399.6,79.4z"/>
		</g>
		<g>
			<path class="st11" d="M241.7,54.5c0,23.5-25.8,46.7-29.6,46.7S182.4,78,182.4,54.5c0-15.7,13.3-28.6,29.6-28.6
				S241.7,38.8,241.7,54.5z"/>
			
				<ellipse transform="matrix(0.6734 -0.7393 0.7393 0.6734 33.1946 162.5368)" class="st20" cx="200.5" cy="43.7" rx="14.5" ry="8.9"/>
			<path class="st20" d="M191.3,73.4c-0.7-1.7-0.6-3.5,0.5-3.8c0.9-0.3,2.3,0.7,3,2.5c0.7,1.7,0.6,3.5-0.5,3.8
				C193.4,76.3,192.1,75.1,191.3,73.4z"/>
			<path class="st9" d="M210.6,175.4c-0.2,0-0.5-0.2-0.5-0.5c0-2.2,0.7-3.2,1.4-4.4c0.6-1,1.2-2,1.2-3.8c0-2-0.6-2.9-1.2-3.8
				c-0.7-1-1.4-2.2-1.4-4.4c0-2.2,0.7-3.2,1.4-4.4c0.6-1,1.2-2,1.2-3.8c0-2-0.6-2.9-1.2-3.8c-0.7-1-1.4-2.2-1.4-4.4
				c0-2.2,0.7-3.2,1.4-4.4c0.6-1,1.2-2,1.2-3.8c0-2-0.6-2.9-1.2-3.8c-0.7-1-1.4-2.2-1.4-4.4c0-2.2,0.7-3.2,1.4-4.4
				c0.6-1,1.2-2,1.2-3.8c0-2-0.6-2.9-1.2-3.8c-0.7-1-1.4-2.2-1.4-4.4c0-2.2,0.7-3.2,1.4-4.4c0.6-1,1.2-2,1.2-3.8
				c0-0.2,0.2-0.5,0.5-0.5c0.2,0,0.5,0.2,0.5,0.5c0,2.2-0.7,3.2-1.4,4.4c-0.6,1-1.2,2-1.2,3.8c0,2,0.6,2.9,1.2,3.8
				c0.7,1,1.4,2.2,1.4,4.4c0,2.2-0.7,3.2-1.4,4.4c-0.6,1-1.2,2-1.2,3.8c0,2,0.6,2.9,1.2,3.8c0.7,1,1.4,2.2,1.4,4.4
				c0,2.2-0.7,3.2-1.4,4.4c-0.6,1-1.2,2-1.2,3.8c0,2,0.6,2.9,1.2,3.8c0.7,1,1.4,2.2,1.4,4.4c0,2.2-0.7,3.2-1.4,4.4
				c-0.6,1-1.2,2-1.2,3.8c0,2,0.6,2.9,1.2,3.8c0.7,1,1.4,2.2,1.4,4.4s-0.7,3.2-1.4,4.4c-0.6,1-1.2,2-1.2,3.8
				C211.1,175.2,211,175.4,210.6,175.4z"/>
			<path class="st11" d="M211.9,100.2c-0.9,0-6.9,5.4-6.9,11h13.9C219,105.6,212.8,100.2,211.9,100.2z"/>
			<path class="st9" d="M213.3,101.4h-2.8c-0.2,0-0.3-0.2-0.3-0.3v-0.3c0-0.2,0.2-0.3,0.3-0.3h2.8c0.2,0,0.3,0.2,0.3,0.3v0.3
				C213.7,101.3,213.5,101.4,213.3,101.4z"/>
		</g>
	</g>
</g>
</svg>
