<?xml version="1.0" encoding="utf-8"?>
<!-- Generator: Adobe Illustrator 24.3.0, SVG Export Plug-In . SVG Version: 6.00 Build 0)  -->
<svg version="1.1" id="Layer_1" xmlns="http://www.w3.org/2000/svg" xmlns:xlink="http://www.w3.org/1999/xlink" x="0px" y="0px"
	 viewBox="0 0 500 500" style="enable-background:new 0 0 500 500;" xml:space="preserve">
<style type="text/css">
	.st0{fill:#F0F0F0;}
	.st1{fill:#E6E6E6;}
	.st2{fill:#E0E0E0;}
	.st3{fill:#FAFAFA;}
	.st4{fill:#F5F5F5;}
	.st5{fill:#FFFFFF;}
	.st6{display:none;}
	.st7{display:inline;}
	.st8{fill:#407BFF;}
	.st9{opacity:0.9;fill:#FFFFFF;enable-background:new    ;}
	.st10{fill:#E9EFFD;}
	.st11{opacity:2.000000e-02;fill:#407BFF;}
	.st12{opacity:0.1;enable-background:new    ;}
	.st13{opacity:0.7;fill:#FAFAFA;enable-background:new    ;}
	.st14{opacity:0.9;}
	.st15{opacity:0.1;fill:#263238;enable-background:new    ;}
	.st16{opacity:0.1;fill:#FFFFFF;enable-background:new    ;}
	.st17{fill:#263238;}
	.st18{fill:none;}
</style>
<g id="Background_Complete">
	<g>
		<g>
			<g>
				<rect x="253.8" y="147.9" class="st0" width="120.2" height="306.9"/>
				<rect x="260.3" y="155.6" class="st1" width="107.1" height="90.3"/>
				<rect x="260.2" y="254.1" class="st1" width="107.1" height="90.3"/>
				<rect x="260.2" y="352.5" class="st1" width="107.1" height="90.3"/>
				<rect x="325.2" y="155.6" class="st2" width="42.2" height="90.3"/>
				<rect x="325.1" y="254.1" class="st2" width="42.2" height="90.3"/>
				<g>
					<g>
						<rect x="277.3" y="308.4" class="st3" width="29.2" height="36.2"/>
						<rect x="264.8" y="308.2" class="st0" width="12.4" height="36.2"/>
					</g>
					<g>
						<rect x="324.3" y="308.4" class="st3" width="29.2" height="36.2"/>
						<rect x="312" y="308.2" class="st0" width="12.4" height="36.2"/>
					</g>
					<g>
						<rect x="301.2" y="272.3" class="st3" width="29.2" height="36.2"/>
						<rect x="288.9" y="272.2" class="st0" width="12.4" height="36.2"/>
					</g>
				</g>
				<rect x="325.2" y="352.5" class="st2" width="42.2" height="90.3"/>
				<rect x="221.1" y="148" class="st4" width="32.6" height="306.9"/>
			</g>
			<rect x="273.1" y="365.6" class="st0" width="87" height="77.3"/>
			<rect x="260.3" y="365.5" class="st2" width="12.8" height="77.3"/>
			<rect x="273.1" y="168.7" class="st0" width="87" height="77.3"/>
			<rect x="260.3" y="168.7" class="st2" width="12.8" height="77.3"/>
		</g>
		<g>
			<g>
				<g>
					<rect x="126.1" y="57.4" class="st2" width="73.1" height="119.1"/>
					<rect x="128" y="57.4" class="st4" width="75.7" height="119.1"/>
					<rect x="134.4" y="66.1" class="st5" width="62.9" height="101.7"/>
				</g>
			</g>
			<g>
				<g>
					<rect x="229.3" class="st2" width="73.1" height="119.1"/>
					<rect x="231.2" class="st4" width="75.7" height="119.1"/>
					<rect x="237.6" y="8.7" class="st5" width="62.9" height="101.7"/>
				</g>
			</g>
		</g>
	</g>
</g>
<g id="Background_Simple" class="st6">
	<g class="st7">
		<path class="st8" d="M353.1,175c-19.5-46-69.5-79.1-117.9-93.7C109.7,43,52.6,220.6,92,259.4c33.4,42.1,74.6,16.5,105.1,25.8
			C368.6,338.4,370,213.2,353.1,175z"/>
		<path class="st9" d="M353.1,175c-19.5-46-69.5-79.1-117.9-93.7C109.7,43,52.6,220.6,92,259.4c33.4,42.1,74.6,16.5,105.1,25.8
			C368.6,338.4,370,213.2,353.1,175z"/>
	</g>
</g>
<g id="Shadow_1_">
	<ellipse id="_x3C_Path_x3E__120_" class="st10" cx="250" cy="448.1" rx="214.7" ry="51.9"/>
	<ellipse id="_x3C_Path_x3E__1_" class="st11" cx="250" cy="448.1" rx="153.3" ry="37.1"/>
</g>
<g id="Character">
</g>
<g id="Nessage">
	<g>
		<g>
			<g>
				<path class="st8" d="M372.7,273.5l10.4,123.7c0.9,10.1-5.2,18.9-13.4,19.7L140.5,437c-8.2,0.8-15.6-6.9-16.4-16.9l-10.4-123.7
					c-0.1-2.4,0-4.7,0.4-6.9c1.6-6.9,6.6-12.2,12.8-12.7l229.3-20.1c6.3-0.6,12.1,3.8,14.7,10.2C372,268.9,372.6,271,372.7,273.5z"
					/>
				<path class="st12" d="M372.7,273.5l10.4,123.7c0.9,10.1-5.2,18.9-13.4,19.7L140.5,437c-8.2,0.8-15.6-6.9-16.4-16.9l-10.4-123.7
					c-0.1-2.4,0-4.7,0.4-6.9c1.6-6.9,6.6-12.2,12.8-12.7l229.3-20.1c6.3-0.6,12.1,3.8,14.7,10.2C372,268.9,372.6,271,372.7,273.5z"
					/>
			</g>
			<polygon class="st8" points="398.3,346.6 400,346.4 400.6,352 399,352.2 			"/>
			<polygon class="st8" points="395.2,319.8 396.8,319.6 399.3,340.3 397.7,340.5 			"/>
			<path class="st8" d="M383,251.4l15,126.9c1.2,10.4-4.6,19.7-13.1,20.6L149.9,428c-8.3,1.1-16.2-6.6-17.4-16.9l-15-126.8
				c-0.3-2.4-0.1-4.9,0.3-7.2c1.5-7.2,6.4-12.7,12.8-13.6l235.1-29.1c6.4-0.8,12.5,3.4,15.5,9.9C382.1,246.6,382.7,248.9,383,251.4z
				"/>
			<path class="st12" d="M381.1,244.5L274.4,318c-10.9,7.5-23.8,9.2-36.1,4.4l-120.7-45.3c1.5-7.2,6.4-12.7,12.8-13.6l235.1-29.1
				C372,233.8,378,237.9,381.1,244.5z"/>
			<g>
				<path class="st8" d="M341.3,272l-30.7,21l-10,6.9l-26.2,18c-10.6,7.3-23.2,9-35.2,4.7c-0.3-0.2-0.6-0.2-0.9-0.3l-14.7-5.5
					l-33.1-12.4l-15.5-5.8l-17.6-6.6l-1.2-31.7l-2.8-70.5l134.5-5.6l51.4,40l0.6,13.6L341.3,272z"/>
				<path class="st13" d="M341.3,272l-30.7,21l-10,6.9l-26.2,18c-10.6,7.3-23.2,9-35.2,4.7c-0.3-0.2-0.6-0.2-0.9-0.3l-14.7-5.5
					l-33.1-12.4l-15.5-5.8l-17.6-6.6l-1.2-31.7l-2.8-70.5l134.5-5.6l51.4,40l0.6,13.6L341.3,272z"/>
				<g class="st14">
					<path class="st5" d="M322.4,238.3l-149,6.3c-1.8,0-3.3-1.4-3.3-3.1l0,0c0-1.8,1.3-3.4,3-3.4l149-6.3c1.8,0,3.3,1.4,3.3,3.1l0,0
						C325.5,236.6,324.2,238.1,322.4,238.3z"/>
					<path class="st5" d="M323.1,258.4l-149,6.3c-1.8,0-3.3-1.4-3.3-3.1l0,0c0-1.8,1.3-3.4,3-3.4l149-6.3c1.8,0,3.3,1.4,3.3,3.1l0,0
						C326.3,256.9,324.9,258.4,323.1,258.4z"/>
					<path class="st5" d="M324,278.7l-149,6.3c-1.8,0-3.3-1.4-3.3-3.1l0,0c0-1.8,1.3-3.4,3-3.4l149-6.3c1.8,0,3.3,1.4,3.3,3.1l0,0
						C327,277.2,325.7,278.7,324,278.7z"/>
					<path class="st5" d="M310.8,293l-10,6.9l-110.1,4.6l-15.5-5.8c0.1,0,0.3,0,0.4,0L310.8,293z"/>
					<path class="st5" d="M270,318.3L270,318.3c0,1.8-1.3,3.4-3,3.4l-27.6,1.1c-0.3-0.2-0.6-0.2-0.9-0.3l-14.7-5.5l42.9-1.8
						C268.3,315.1,269.8,316.5,270,318.3z"/>
				</g>
				<polygon class="st15" points="339.4,224.2 303.8,222.5 288.1,184.4 				"/>
				<polygon class="st8" points="339.4,224.2 304.8,218.1 288.1,184.4 				"/>
			</g>
		</g>
		<g>
			<path class="st8" d="M408.1,76.3c0,31-33.2,61.5-38.1,61.5s-38.1-30.5-38.1-61.5c0-20.7,17.1-37.7,38.1-37.7
				S408.1,55.5,408.1,76.3z"/>
			<path class="st16" d="M362.8,68.5c-6.9,7.8-16.2,10.5-21,6.3c-4.6-4.4-2.8-14.2,4-22c6.9-7.8,16.2-10.5,21-6.3
				C371.4,50.9,369.6,60.7,362.8,68.5z"/>
			<path class="st16" d="M342.4,99.8c-0.9-2.3-0.7-4.6,0.6-5c1.2-0.5,3,0.9,3.9,3.4c0.9,2.3,0.7,4.6-0.6,5
				C345,103.6,343.3,102,342.4,99.8z"/>
			<path class="st17" d="M368.1,235.4c-0.3,0-0.6-0.3-0.6-0.6c0-2.9,0.9-4.3,1.8-5.8c0.7-1.4,1.5-2.6,1.5-5c0-2.6-0.7-3.8-1.5-5
				c-0.9-1.4-1.8-2.9-1.8-5.8c0-2.9,0.9-4.3,1.8-5.8c0.7-1.4,1.5-2.6,1.5-5c0-2.6-0.7-3.8-1.5-5c-0.9-1.4-1.8-2.9-1.8-5.8
				c0-2.9,0.9-4.3,1.8-5.8c0.7-1.4,1.5-2.6,1.5-5c0-2.6-0.7-3.8-1.5-5c-0.9-1.4-1.8-2.9-1.8-5.8c0-2.9,0.9-4.3,1.8-5.8
				c0.7-1.4,1.5-2.6,1.5-5c0-2.6-0.7-3.8-1.5-5c-0.9-1.4-1.8-2.9-1.8-5.8c0-2.9,0.9-4.3,1.8-5.8c0.7-1.4,1.5-2.6,1.5-5
				c0-0.3,0.3-0.6,0.6-0.6c0.3,0,0.6,0.3,0.6,0.6c0,2.9-0.9,4.3-1.8,5.8c-0.7,1.4-1.5,2.6-1.5,5c0,2.6,0.7,3.8,1.5,5
				c0.9,1.4,1.8,2.9,1.8,5.8c0,2.9-0.9,4.3-1.8,5.8c-0.7,1.4-1.5,2.6-1.5,5c0,2.6,0.7,3.8,1.5,5c0.9,1.4,1.8,2.9,1.8,5.8
				c0,2.9-0.9,4.3-1.8,5.8c-0.7,1.4-1.5,2.6-1.5,5c0,2.6,0.7,3.8,1.5,5c0.9,1.4,1.8,2.9,1.8,5.8c0,2.9-0.9,4.3-1.8,5.8
				c-0.7,1.4-1.5,2.6-1.5,5c0,2.6,0.7,3.8,1.5,5c0.9,1.4,1.8,2.9,1.8,5.8c0,2.9-0.9,4.3-1.8,5.8c-0.7,1.4-1.5,2.6-1.5,5
				C368.7,235.1,368.6,235.4,368.1,235.4z"/>
			<path class="st8" d="M369.8,136.4c-1.2,0-8.9,7.2-8.9,14.5h17.9C378.9,143.5,371,136.4,369.8,136.4z"/>
			<path class="st17" d="M371.6,138H368c-0.3,0-0.4-0.3-0.4-0.5v-0.5c0-0.3,0.3-0.5,0.4-0.5h3.6c0.3,0,0.4,0.3,0.4,0.5v0.5
				C372.2,137.7,371.9,138,371.6,138z"/>
		</g>
		<g>
			<path class="st17" d="M168.4,105.2c0,31-33.2,61.5-38.1,61.5s-38.1-30.5-38.1-61.5c0-20.7,17.1-37.7,38.1-37.7
				S168.4,84.5,168.4,105.2z"/>
			
				<ellipse transform="matrix(0.6539 -0.7566 0.7566 0.6539 -28.7458 118.9493)" class="st16" cx="115.6" cy="90.9" rx="18.9" ry="11.6"/>
			<path class="st16" d="M103.7,130c-0.9-2.3-0.7-4.6,0.6-5c1.2-0.5,3,0.9,3.9,3.4c0.9,2.3,0.7,4.6-0.6,5
				C106.2,133.8,104.6,132.4,103.7,130z"/>
			<path class="st8" d="M128.6,264.3c-0.3,0-0.6-0.3-0.6-0.6c0-2.9,0.9-4.3,1.8-5.8c0.7-1.4,1.5-2.6,1.5-5c0-2.6-0.7-3.8-1.5-5
				c-0.9-1.4-1.8-2.9-1.8-5.8s0.9-4.3,1.8-5.8c0.7-1.4,1.5-2.6,1.5-5c0-2.6-0.7-3.8-1.5-5c-0.9-1.4-1.8-2.9-1.8-5.8
				c0-2.9,0.9-4.3,1.8-5.8c0.7-1.4,1.5-2.6,1.5-5c0-2.6-0.7-3.8-1.5-5c-0.9-1.4-1.8-2.9-1.8-5.8c0-2.9,0.9-4.3,1.8-5.8
				c0.7-1.4,1.5-2.6,1.5-5c0-2.6-0.7-3.8-1.5-5c-0.9-1.4-1.8-2.9-1.8-5.8c0-2.9,0.9-4.3,1.8-5.8c0.7-1.4,1.5-2.6,1.5-5
				c0-0.3,0.3-0.6,0.6-0.6s0.6,0.3,0.6,0.6c0,2.9-0.9,4.3-1.8,5.8c-0.7,1.4-1.5,2.6-1.5,5c0,2.6,0.7,3.8,1.5,5
				c0.9,1.4,1.8,2.9,1.8,5.8c0,2.9-0.9,4.3-1.8,5.8c-0.7,1.4-1.5,2.6-1.5,5c0,2.6,0.7,3.8,1.5,5c0.9,1.4,1.8,2.9,1.8,5.8
				c0,2.9-0.9,4.3-1.8,5.8c-0.7,1.4-1.5,2.6-1.5,5c0,2.6,0.7,3.8,1.5,5c0.9,1.4,1.8,2.9,1.8,5.8c0,2.9-0.9,4.3-1.8,5.8
				c-0.7,1.4-1.5,2.6-1.5,5c0,2.6,0.7,3.8,1.5,5c0.9,1.4,1.8,2.9,1.8,5.8s-0.9,4.3-1.8,5.8c-0.7,1.4-1.5,2.6-1.5,5
				C129.2,264,128.9,264.3,128.6,264.3z"/>
			<path class="st17" d="M130.2,165.3c-1.2,0-8.9,7.2-8.9,14.5h17.9C139.2,172.5,131.4,165.3,130.2,165.3z"/>
			<path class="st8" d="M132,167h-3.6c-0.3,0-0.4-0.3-0.4-0.5v-0.5c0-0.3,0.3-0.5,0.4-0.5h3.6c0.3,0,0.4,0.3,0.4,0.5v0.5
				C132.5,166.7,132.2,167,132,167z"/>
		</g>
	</g>
</g>
<line class="st18" x1="0" y1="210.9" x2="500" y2="210.9"/>
</svg>
