<?xml version="1.0" encoding="utf-8"?>
<!-- Generator: Adobe Illustrator 24.3.0, SVG Export Plug-In . SVG Version: 6.00 Build 0)  -->
<svg version="1.1" xmlns="http://www.w3.org/2000/svg" xmlns:xlink="http://www.w3.org/1999/xlink" x="0px" y="0px"
	 viewBox="0 0 3710 3710" style="enable-background:new 0 0 3710 3710;" xml:space="preserve">
<style type="text/css">
	.st0{fill:url(#SVGID_1_);}
	.st1{opacity:0.3;}
	.st2{fill:#91B3FA;}
	.st3{fill:#BDD0FB;}
	.st4{fill:#7D97F4;}
	.st5{fill:url(#SVGID_2_);}
	.st6{fill:url(#SVGID_3_);}
	.st7{fill:url(#SVGID_4_);}
	.st8{fill:url(#SVGID_5_);}
	.st9{fill:url(#SVGID_6_);}
	.st10{fill:url(#SVGID_7_);}
	.st11{fill:url(#SVGID_8_);}
	.st12{fill:url(#SVGID_9_);}
	.st13{fill:url(#SVGID_10_);}
	.st14{fill:url(#SVGID_11_);}
	.st15{fill:url(#SVGID_12_);}
	.st16{fill:url(#SVGID_13_);}
	.st17{fill:url(#SVGID_14_);}
	.st18{fill:url(#SVGID_15_);}
	.st19{fill:url(#SVGID_16_);}
	.st20{fill:url(#SVGID_17_);}
	.st21{fill:url(#SVGID_18_);}
	.st22{fill:url(#SVGID_19_);}
	.st23{fill:url(#SVGID_20_);}
	.st24{fill:url(#SVGID_21_);}
	.st25{fill:url(#SVGID_22_);}
	.st26{fill:url(#SVGID_23_);}
	.st27{fill:url(#SVGID_24_);}
	.st28{fill:url(#SVGID_25_);}
	.st29{fill:url(#SVGID_26_);}
	.st30{fill:url(#SVGID_27_);}
	.st31{fill:url(#SVGID_28_);}
	.st32{fill:url(#SVGID_29_);}
	.st33{fill:url(#SVGID_30_);}
	.st34{fill:url(#SVGID_31_);}
	.st35{fill:url(#SVGID_32_);}
	.st36{fill:url(#SVGID_33_);}
	.st37{fill:url(#SVGID_34_);}
	.st38{fill:url(#SVGID_35_);}
	.st39{fill:url(#SVGID_36_);}
	.st40{fill:url(#SVGID_37_);}
	.st41{fill:url(#SVGID_38_);}
	.st42{fill:url(#SVGID_39_);}
	.st43{fill:url(#SVGID_40_);}
	.st44{fill:url(#SVGID_41_);}
	.st45{fill:url(#SVGID_42_);}
	.st46{fill:url(#SVGID_43_);}
	.st47{fill:url(#SVGID_44_);}
	.st48{fill:url(#SVGID_45_);}
	.st49{fill:url(#SVGID_46_);}
	.st50{fill:url(#SVGID_47_);}
	.st51{fill:url(#SVGID_48_);}
	.st52{fill:url(#SVGID_49_);}
</style>
<g id="Background">
</g>
<g id="Illustration">
	<g>
		<linearGradient id="SVGID_1_" gradientUnits="userSpaceOnUse" x1="3430.3115" y1="3511.374" x2="1428.3472" y2="1350.5232">
			<stop  offset="0" style="stop-color:#DAE3FE"/>
			<stop  offset="1" style="stop-color:#E9EFFD"/>
		</linearGradient>
		<path class="st0" d="M3151.3,2280c-275.1,643-1001.2,919.2-1570.2,872.1c-155.3-12.9-467.9-38.7-711.9-269.5
			c-468.7-443.2-396.5-1369.6,52.2-1915.1c57.8-70.2,457.7-540.8,1080.9-534.5c456.3,4.6,776.5,262.4,815.5,294.5
			c49.2,40.6,157.7,137,255.5,289.9C3303,1376.6,3323.2,1878.2,3151.3,2280z"/>
		<g>
			<g>
				<g class="st1">
					<path class="st2" d="M2373.3,949.4c-5.4,0-10-4.1-10.5-9.5c-1.3-11.9-2-24.1-2.2-36.1c-0.1-5.9,4.5-10.7,10.4-10.8
						c0.1,0,0.1,0,0.2,0c5.8,0,10.5,4.6,10.6,10.4c0.2,11.5,0.9,23,2.1,34.3c0.6,5.8-3.6,11.1-9.5,11.7
						C2374.1,949.4,2373.7,949.4,2373.3,949.4z M2374,856.9c-0.4,0-0.8,0-1.3-0.1c-5.8-0.7-10-6-9.3-11.8c1.4-12,3.4-24,5.8-35.7
						c1.2-5.7,6.8-9.4,12.5-8.3c5.7,1.2,9.4,6.8,8.3,12.5c-2.3,11.2-4.1,22.6-5.5,33.9C2383.9,852.9,2379.3,856.9,2374,856.9z
						 M2395.1,766.8c-1.2,0-2.4-0.2-3.6-0.6c-5.5-2-8.4-8-6.4-13.6c4-11.3,8.6-22.6,13.6-33.6c2.4-5.3,8.7-7.7,14.1-5.3
						c5.3,2.4,7.7,8.7,5.3,14.1c-4.7,10.4-9.1,21.1-12.9,31.9C2403.5,764.1,2399.4,766.8,2395.1,766.8z M2435.7,683.7
						c-2,0-3.9-0.5-5.7-1.7c-4.9-3.2-6.4-9.7-3.2-14.7c6.5-10.1,13.5-20.1,20.8-29.7c3.6-4.6,10.2-5.5,14.9-2
						c4.7,3.6,5.5,10.2,2,14.9c-6.9,9.1-13.6,18.5-19.7,28.2C2442.6,682,2439.2,683.7,2435.7,683.7z M2493.9,611.8
						c-2.7,0-5.5-1.1-7.6-3.2c-4.1-4.2-4.1-10.9,0.1-15c8.5-8.4,17.6-16.6,26.8-24.3c4.5-3.8,11.2-3.2,15,1.4
						c3.8,4.5,3.1,11.2-1.4,15c-8.8,7.3-17.4,15.1-25.5,23.1C2499.3,610.8,2496.6,611.8,2493.9,611.8z M2566.5,554.5
						c-3.5,0-7-1.8-9-5c-3.1-5-1.6-11.5,3.4-14.6c10.2-6.3,20.8-12.3,31.5-17.8c5.2-2.7,11.6-0.6,14.3,4.6
						c2.7,5.2,0.6,11.6-4.6,14.3c-10.2,5.2-20.3,10.9-30,16.9C2570.3,554,2568.4,554.5,2566.5,554.5z M2955.5,529.2
						c-1.5,0-3-0.3-4.4-1c-10.4-4.7-21.1-9-31.9-12.9c-5.5-2-8.4-8-6.5-13.5c2-5.5,8-8.4,13.6-6.5c11.4,4,22.7,8.6,33.6,13.5
						c5.3,2.4,7.7,8.7,5.3,14.1C2963.4,526.9,2959.6,529.2,2955.5,529.2z M2649.9,514.8c-4.4,0-8.5-2.8-10-7.2
						c-1.9-5.5,1-11.6,6.6-13.5c11.4-3.9,23-7.4,34.7-10.3c5.7-1.4,11.5,2,12.9,7.7c1.4,5.7-2,11.5-7.7,12.9
						c-11.1,2.8-22.2,6.1-32.9,9.8C2652.3,514.6,2651.1,514.8,2649.9,514.8z M2867.6,500.7c-0.7,0-1.4-0.1-2.1-0.2
						c-11.2-2.3-22.6-4.1-34-5.4c-5.8-0.7-10-6-9.3-11.8c0.7-5.8,5.9-10,11.8-9.3c12,1.4,24,3.3,35.8,5.7c5.7,1.2,9.5,6.8,8.3,12.5
						C2876.9,497.2,2872.5,500.7,2867.6,500.7z M2740.2,494.7c-5.4,0-10-4-10.5-9.5c-0.6-5.8,3.6-11.1,9.4-11.7
						c11.9-1.3,24.1-2,36.1-2.3c0.1,0,0.2,0,0.2,0c5.8,0,10.5,4.6,10.6,10.4c0.1,5.9-4.5,10.7-10.4,10.8c-11.4,0.2-23,1-34.3,2.2
						C2740.9,494.6,2740.6,494.7,2740.2,494.7z"/>
					<path class="st2" d="M3020.4,566.1c-2.1,0-4.2-0.6-6.1-1.9c-4.5-3.1-9.1-6.2-13.8-9.2c-4.9-3.1-6.4-9.7-3.3-14.7
						c3.1-4.9,9.7-6.4,14.7-3.3c4.9,3.1,9.8,6.4,14.5,9.6c4.8,3.3,6,10,2.7,14.8C3027,564.5,3023.7,566.1,3020.4,566.1z"/>
				</g>
				<g class="st1">
					<path class="st2" d="M3192.8,840c-5.1,0-9.6-3.7-10.5-8.9c-0.9-5.4-1.9-10.9-3-16.3c-1.2-5.7,2.5-11.4,8.3-12.5
						c5.8-1.2,11.4,2.6,12.5,8.3c1.2,5.7,2.2,11.5,3.1,17.1c0.9,5.8-3,11.2-8.8,12.2C3194,840,3193.4,840,3192.8,840z"/>
					<path class="st2" d="M2785,1319.3c-4.9,0-9.8-0.1-14.7-0.2c-5.9-0.2-10.5-5.1-10.3-11c0.2-5.9,5.1-10.5,11-10.3
						c11.4,0.4,22.7,0.3,33.9-0.2c5.9-0.3,10.8,4.2,11.1,10.1c0.3,5.9-4.2,10.8-10.1,11.1C2799,1319.1,2792,1319.3,2785,1319.3z
						 M2714.5,1313.3c-0.6,0-1.2-0.1-1.8-0.2c-11.7-2-23.4-4.5-34.8-7.5c-5.7-1.5-9.1-7.3-7.6-12.9c1.5-5.7,7.3-9.1,12.9-7.6
						c10.9,2.8,22,5.2,33.1,7.1c5.8,1,9.7,6.5,8.7,12.3C2724.1,1309.7,2719.6,1313.3,2714.5,1313.3z M2861.4,1312.2
						c-5,0-9.5-3.6-10.4-8.7c-1.1-5.8,2.7-11.3,8.5-12.4c11-2.1,22.1-4.6,32.9-7.7c5.7-1.6,11.5,1.7,13.1,7.4
						c1.6,5.7-1.7,11.5-7.4,13.1c-11.4,3.2-23.1,5.9-34.7,8.1C2862.7,1312.1,2862,1312.2,2861.4,1312.2z M2627,1288.2
						c-1.3,0-2.7-0.3-4-0.8c-10.9-4.5-21.8-9.5-32.3-15c-5.2-2.7-7.3-9.1-4.6-14.3c2.7-5.2,9.1-7.3,14.3-4.6
						c10,5.1,20.3,9.9,30.7,14.2c5.4,2.2,8,8.4,5.8,13.9C2635.1,1285.7,2631.2,1288.2,2627,1288.2z M2948.4,1285.5
						c-4.1,0-8-2.4-9.8-6.4c-2.3-5.4,0.2-11.6,5.5-14c10.3-4.4,20.5-9.4,30.5-14.7c5.2-2.8,11.6-0.8,14.4,4.3
						c2.8,5.2,0.8,11.6-4.3,14.4c-10.4,5.6-21.2,10.8-32.1,15.5C2951.2,1285.2,2949.8,1285.5,2948.4,1285.5z M3027.4,1240.5
						c-3.3,0-6.5-1.5-8.6-4.4c-3.4-4.7-2.4-11.4,2.3-14.8c9.1-6.6,18-13.7,26.5-21c4.4-3.8,11.1-3.3,15,1.1c3.8,4.4,3.3,11.1-1.1,15
						c-8.9,7.7-18.3,15.2-27.9,22.1C3031.7,1239.8,3029.6,1240.5,3027.4,1240.5z M3094.7,1179.2c-2.5,0-5-0.9-7-2.7
						c-4.4-3.9-4.8-10.6-0.9-15c7.4-8.4,14.6-17.3,21.3-26.3c3.5-4.7,10.1-5.7,14.9-2.2c4.7,3.5,5.7,10.1,2.2,14.9
						c-7.1,9.5-14.6,18.8-22.4,27.7C3100.6,1178,3097.7,1179.2,3094.7,1179.2z M3147.1,1104.8c-1.7,0-3.5-0.4-5.1-1.3
						c-5.1-2.8-7-9.3-4.2-14.4c5.4-9.9,10.5-20.1,15-30.3c2.4-5.4,8.7-7.8,14-5.4c5.4,2.4,7.8,8.7,5.4,14
						c-4.8,10.8-10.1,21.5-15.8,31.9C3154.5,1102.8,3150.8,1104.8,3147.1,1104.8z M3181.9,1020.6c-1,0-2-0.1-2.9-0.4
						c-5.6-1.6-8.9-7.5-7.3-13.1c3.1-10.8,5.8-21.8,8-32.9c1.1-5.8,6.7-9.5,12.5-8.3c5.8,1.1,9.5,6.7,8.3,12.5
						c-2.3,11.6-5.1,23.3-8.4,34.6C3190.7,1017.6,3186.5,1020.6,3181.9,1020.6z M3197.3,930.9c-0.2,0-0.4,0-0.7,0
						c-5.9-0.4-10.3-5.4-9.9-11.2c0.5-8.3,0.8-16.6,0.8-24.9c0-3,0-6-0.1-8.9c-0.1-5.9,4.5-10.7,10.4-10.8
						c5.9-0.2,10.7,4.5,10.8,10.4c0.1,3.1,0.1,6.3,0.1,9.4c0,8.7-0.3,17.5-0.8,26.2C3207.5,926.6,3202.8,930.9,3197.3,930.9z"/>
					<path class="st2" d="M2547,1244.2c-2.1,0-4.2-0.6-6.1-1.9c-4.7-3.3-9.4-6.8-14-10.3c-4.7-3.6-5.5-10.2-2-14.9
						c3.6-4.7,10.2-5.5,14.9-2c4.4,3.4,8.9,6.6,13.3,9.8c4.8,3.4,6,10,2.6,14.8C2553.6,1242.7,2550.3,1244.2,2547,1244.2z"/>
				</g>
				<g>
					<path class="st2" d="M2561.3,1121.1c1.3,1.6,3.6,2.3,5.6,1.5l56.7-20.8c22.3,17.2,47.6,31,75,40.4l13.8,58.8
						c0.5,2.1,2.2,3.6,4.3,3.8l72.1,7.3c2.1,0.2,4.1-0.9,5-2.9l25.3-54.8c28.8-3.7,56.3-12.2,81.6-24.5l51.4,31.8
						c1.8,1.1,4.1,1,5.7-0.4l56.1-45.8c1.6-1.3,2.3-3.6,1.5-5.6l-20.8-56.7c17.2-22.3,31-47.6,40.4-75l58.8-13.8
						c2.1-0.5,3.6-2.2,3.8-4.3l7.3-72.1c0.2-2.1-0.9-4.1-2.9-5l-54.8-25.3c-3.7-28.8-12.2-56.3-24.5-81.6l31.8-51.4
						c1.1-1.8,1-4.1-0.4-5.7l-45.8-56.1c-1.3-1.6-3.6-2.3-5.6-1.5l-56.7,20.8c-22.3-17.2-47.6-31-75-40.4l-13.8-58.8
						c-0.5-2.1-2.2-3.6-4.3-3.8l-72.1-7.3c-2.1-0.2-4.1,0.9-5,2.9l-25.3,54.8c-28.8,3.7-56.3,12.2-81.6,24.5l-51.4-31.8
						c-1.8-1.1-4.1-1-5.7,0.4l-56.1,45.8c-1.6,1.3-2.3,3.6-1.5,5.6l20.8,56.7c-17.2,22.3-31,47.6-40.4,75l-58.8,13.8
						c-2.1,0.5-3.6,2.2-3.8,4.3l-7.3,72.1c-0.2,2.1,0.9,4.1,2.9,5l54.8,25.3c3.7,28.8,12.2,56.3,24.5,81.6l-31.8,51.4
						c-1.1,1.8-1,4.1,0.4,5.7L2561.3,1121.1z"/>
					<g>
						<path class="st3" d="M2784.8,964.7c-35.5,0-66.7-26.1-72-62.2c-5.9-39.7,21.7-76.8,61.4-82.7c19.2-2.8,38.4,2,54.1,13.6
							c15.6,11.6,25.8,28.6,28.6,47.8c5.9,39.7-21.7,76.8-61.4,82.7C2791.9,964.5,2788.3,964.7,2784.8,964.7z M2785,836.1
							c-2.7,0-5.5,0.2-8.3,0.6c-30.5,4.5-51.6,32.9-47.1,63.4c4.5,30.5,32.9,51.6,63.4,47.1c30.5-4.5,51.6-32.9,47.1-63.4
							c-2.2-14.8-10-27.8-21.9-36.7C2808.4,839.9,2796.9,836.1,2785,836.1z"/>
					</g>
					<path class="st3" d="M2786.3,1069.9c-6.1,0-12.2-0.3-18.4-0.9l0,0c-1.9-0.2-3.9-0.4-5.8-0.7c-9.5-1.3-18.9-3.3-28-6.1
						c-0.1,0-0.2-0.1-0.4-0.1c-0.4-0.1-0.7-0.2-1.1-0.3c-0.7-0.2-1.4-0.4-2.1-0.7c-1.8-0.6-2.9-2.2-2.9-4c0-0.4,0.1-0.9,0.2-1.3
						c0.7-2.2,3.1-3.4,5.3-2.7c11.5,3.7,23.4,6.2,35.5,7.4c60.1,6.1,116.2-20,151.2-64.2c19.4-24.6,32.3-54.8,35.7-88.3
						c0.6-5.9,0.9-11.7,0.9-17.5c0-39.1-13.4-76.8-38.4-107.5c-28.8-35.3-69.6-57.3-115-61.9c-93.6-9.5-177.4,58.9-186.9,152.5
						c-0.6,5.8-0.9,11.5-0.9,17.3c0,25,5.5,49.6,16.1,72.3c0.3,0.6,0.4,1.2,0.4,1.8c0,1.6-0.9,3.1-2.4,3.8c-2.1,1-4.7,0.1-5.7-2
						c-11.2-23.7-16.9-49.7-16.9-75.9c0-6,0.3-12.1,0.9-18.2c9.9-98.2,98-170,196.2-160.1c47.6,4.8,90.4,27.9,120.7,64.9
						c26.3,32.3,40.3,71.8,40.4,112.8c0,6.1-0.3,12.2-0.9,18.4c-4.8,47.6-27.9,90.4-64.9,120.7
						C2866.9,1055.9,2827.4,1069.9,2786.3,1069.9z"/>
				</g>
			</g>
			<g>
				<g class="st1">
					<path class="st2" d="M2011,1229.2c-2.8,0-5.5-1.9-6.3-4.7c-1.6-5.3-3-10.8-4.2-16.2c-0.8-3.5,1.4-7,4.9-7.9
						c3.5-0.8,7,1.4,7.9,4.9c1.2,5.2,2.5,10.4,4,15.5c1,3.5-1,7.1-4.4,8.1C2012.2,1229.1,2011.6,1229.2,2011,1229.2z"/>
					<path class="st2" d="M2001.3,1179.7c-3.3,0-6.2-2.5-6.5-5.9c-1-9.5-1.5-19.2-1.5-28.8c0-2,0-4,0.1-6.1c0.1-3.6,3.3-6.4,6.7-6.4
						c3.6,0.1,6.5,3.1,6.4,6.7c0,1.9-0.1,3.9-0.1,5.8c0,9.1,0.5,18.4,1.4,27.5c0.4,3.6-2.3,6.8-5.9,7.2
						C2001.8,1179.7,2001.5,1179.7,2001.3,1179.7z M2002.8,1111.6c-0.3,0-0.6,0-0.9-0.1c-3.6-0.5-6.1-3.8-5.6-7.4
						c1.7-11.5,4-23,7.1-34.2c1-3.5,4.6-5.5,8.1-4.6c3.5,1,5.6,4.6,4.6,8c-2.9,10.7-5.2,21.6-6.8,32.6
						C2008.8,1109.2,2006,1111.6,2002.8,1111.6z M2020.7,1045.9c-0.8,0-1.7-0.2-2.5-0.5c-3.3-1.4-4.9-5.2-3.6-8.6
						c4.4-10.7,9.6-21.3,15.3-31.4c1.8-3.2,5.8-4.3,8.9-2.5c3.2,1.8,4.3,5.8,2.5,8.9c-5.5,9.6-10.4,19.7-14.6,30
						C2025.7,1044.4,2023.2,1045.9,2020.7,1045.9z M2054.2,986.6c-1.4,0-2.7-0.4-3.9-1.3c-2.9-2.2-3.5-6.3-1.4-9.2
						c6.9-9.3,14.5-18.3,22.5-26.7c2.5-2.6,6.7-2.7,9.3-0.2c2.6,2.5,2.7,6.6,0.2,9.3c-7.6,8-14.8,16.6-21.4,25.5
						C2058.2,985.7,2056.2,986.6,2054.2,986.6z M2101.1,937.3c-1.9,0-3.8-0.8-5.1-2.4c-2.3-2.8-1.9-6.9,0.9-9.2
						c9-7.4,18.5-14.2,28.3-20.4c3.1-1.9,7.1-1,9,2c1.9,3.1,1,7.1-2,9c-9.3,5.9-18.4,12.5-27,19.5
						C2104.1,936.8,2102.6,937.3,2101.1,937.3z M2158.6,900.9c-2.5,0-4.8-1.4-5.9-3.8c-1.5-3.3-0.1-7.2,3.1-8.7
						c10.5-5,21.4-9.3,32.4-12.9c3.5-1.1,7.1,0.7,8.3,4.2c1.1,3.4-0.7,7.1-4.2,8.3c-10.5,3.4-20.9,7.6-30.9,12.3
						C2160.5,900.7,2159.6,900.9,2158.6,900.9z M2223.3,879.7c-3.1,0-5.8-2.2-6.4-5.3c-0.7-3.6,1.6-7,5.2-7.7
						c11.4-2.2,23-3.8,34.6-4.6c3.6-0.2,6.8,2.5,7,6.1c0.3,3.6-2.5,6.7-6.1,7c-11.1,0.8-22.2,2.2-33,4.4
						C2224.1,879.7,2223.7,879.7,2223.3,879.7z M2325.1,878.9c-0.4,0-0.8,0-1.2-0.1c-9.4-1.7-19.1-2.9-28.7-3.5
						c-1.5-0.1-2.9-0.2-4.3-0.3c-3.6-0.2-6.4-3.3-6.2-6.9c0.2-3.6,3.3-6.5,6.9-6.2c1.5,0.1,3.1,0.2,4.6,0.3
						c10.1,0.7,20.2,1.9,30.1,3.7c3.6,0.6,5.9,4,5.3,7.6C2331,876.6,2328.2,878.9,2325.1,878.9z"/>
				</g>
				<g class="st1">
					<path class="st2" d="M2280.4,1427.9c-3.6,0-6.5-2.9-6.6-6.5c0-3.6,2.9-6.6,6.5-6.6c10.9-0.1,21.9-0.9,32.7-2.4
						c3.6-0.4,6.9,2,7.4,5.6c0.5,3.6-2,6.9-5.6,7.4C2303.5,1426.9,2291.9,1427.8,2280.4,1427.9
						C2280.5,1427.9,2280.4,1427.9,2280.4,1427.9z M2246.9,1426.3c-0.2,0-0.5,0-0.7,0c-11.4-1.2-22.7-3.1-33.9-5.7
						c-3.5-0.8-5.7-4.3-4.9-7.9c0.8-3.5,4.4-5.7,7.9-4.9c10.6,2.5,21.5,4.3,32.3,5.4c3.6,0.4,6.2,3.6,5.8,7.2
						C2253.1,1423.8,2250.2,1426.3,2246.9,1426.3z M2346.8,1418.9c-2.9,0-5.6-1.9-6.3-4.9c-0.9-3.5,1.2-7.1,4.7-8
						c10.6-2.8,21-6.2,31.1-10.2c3.4-1.3,7.2,0.3,8.5,3.7c1.3,3.4-0.3,7.2-3.7,8.5c-10.6,4.2-21.6,7.8-32.6,10.7
						C2347.9,1418.9,2347.3,1418.9,2346.8,1418.9z M2181.6,1411.2c-0.7,0-1.5-0.1-2.2-0.4c-10.7-3.9-21.3-8.5-31.5-13.7
						c-3.2-1.6-4.5-5.6-2.9-8.8c1.6-3.2,5.6-4.5,8.8-2.9c9.7,4.9,19.8,9.3,30,13.1c3.4,1.2,5.2,5,3.9,8.4
						C2186.8,1409.6,2184.3,1411.2,2181.6,1411.2z M2409,1394.2c-2.3,0-4.6-1.2-5.8-3.4c-1.7-3.2-0.6-7.2,2.6-8.9
						c9.6-5.2,18.9-11.1,27.7-17.4c2.9-2.1,7-1.4,9.2,1.5c2.1,2.9,1.4,7-1.5,9.2c-9.3,6.6-19.1,12.8-29.1,18.3
						C2411.1,1394,2410,1394.2,2409,1394.2z M2463.5,1355.3c-1.8,0-3.5-0.7-4.8-2.1c-2.4-2.7-2.3-6.8,0.4-9.3
						c8-7.4,15.7-15.3,22.8-23.5c2.4-2.8,6.5-3.1,9.2-0.7c2.8,2.4,3.1,6.5,0.7,9.2c-7.4,8.7-15.4,17-23.9,24.7
						C2466.6,1354.7,2465,1355.3,2463.5,1355.3z M2507,1304.4c-1.2,0-2.5-0.4-3.6-1.1c-3-2-3.8-6.1-1.8-9.1
						c6-9.1,11.6-18.6,16.5-28.3c1.6-3.2,5.6-4.5,8.8-2.9c3.2,1.6,4.5,5.6,2.9,8.8c-5.1,10.2-10.9,20.2-17.3,29.7
						C2511.2,1303.4,2509.1,1304.4,2507,1304.4z"/>
					<path class="st2" d="M2121.7,1380.6c-1.3,0-2.5-0.4-3.7-1.1c-4.6-3.1-9.2-6.4-13.6-9.8c-2.9-2.2-3.4-6.3-1.2-9.2
						c2.2-2.9,6.3-3.4,9.2-1.2c4.2,3.2,8.5,6.3,13,9.4c3,2,3.8,6.1,1.8,9.1C2125.9,1379.6,2123.8,1380.6,2121.7,1380.6z"/>
				</g>
				<g>
					<path class="st2" d="M2127.2,1295.9c0.9,1.1,2.4,1.5,3.7,1l37.9-13.9c15,11.5,31.9,20.7,50.2,27l9.3,39.3
						c0.3,1.4,1.5,2.4,2.9,2.5l48.2,4.9c1.4,0.1,2.8-0.6,3.3-1.9l16.9-36.7c19.3-2.5,37.7-8.1,54.6-16.4l34.4,21.3
						c1.2,0.7,2.7,0.6,3.8-0.3l37.6-30.6c1.1-0.9,1.5-2.4,1-3.7l-13.9-37.9c11.5-15,20.7-31.9,27-50.2l39.3-9.3
						c1.4-0.3,2.4-1.5,2.5-2.9l4.9-48.2c0.1-1.4-0.6-2.8-1.9-3.3l-36.7-16.9c-2.5-19.3-8.1-37.7-16.4-54.6l21.3-34.4
						c0.7-1.2,0.6-2.7-0.3-3.8l-30.6-37.6c-0.9-1.1-2.4-1.5-3.7-1l-37.9,13.9c-15-11.5-31.9-20.7-50.2-27l-9.3-39.3
						c-0.3-1.4-1.5-2.4-2.9-2.5l-48.2-4.9c-1.4-0.1-2.8,0.6-3.3,1.9l-16.9,36.7c-19.3,2.5-37.7,8.1-54.6,16.4l-34.4-21.3
						c-1.2-0.7-2.8-0.6-3.8,0.3l-37.6,30.6c-1.1,0.9-1.5,2.4-1,3.7l13.9,37.9c-11.5,15-20.7,31.9-27,50.2l-39.3,9.3
						c-1.4,0.3-2.4,1.5-2.5,2.9l-4.9,48.2c-0.1,1.4,0.6,2.8,1.9,3.3l36.7,16.9c2.5,19.3,8.1,37.7,16.4,54.6l-21.3,34.4
						c-0.7,1.2-0.6,2.7,0.3,3.8L2127.2,1295.9z"/>
					<g>
						<path class="st3" d="M2276.6,1192.1c-10.6,0-20.8-3.4-29.5-9.8c-10.6-7.9-17.6-19.5-19.5-32.6c-4-27.1,14.8-52.3,41.8-56.3
							c27.1-3.9,52.3,14.8,56.3,41.8c1.9,13.1-1.4,26.2-9.3,36.8c-7.9,10.6-19.5,17.6-32.6,19.5
							C2281.5,1192,2279.1,1192.1,2276.6,1192.1z M2276.8,1106c-1.8,0-3.5,0.1-5.3,0.4c-19.9,2.9-33.7,21.5-30.8,41.4
							c1.4,9.6,6.5,18.2,14.3,24c7.8,5.8,17.4,8.2,27.1,6.8l0,0c9.6-1.4,18.2-6.5,24-14.3c5.8-7.8,8.2-17.4,6.8-27.1
							C2310.2,1119.1,2294.6,1106,2276.8,1106z"/>
					</g>
					<path class="st3" d="M2277.6,1265.3c-4.1,0-8.3-0.2-12.5-0.6c-8.4-0.8-16.7-2.5-24.7-5.1c-0.4-0.1-0.7-0.2-1.1-0.3
						c-2.8-0.9-4.5-3.5-4.5-6.2c0-0.7,0.1-1.4,0.3-2c1.1-3.4,4.8-5.3,8.3-4.2c7.4,2.4,15.2,4,23,4.8h0c0.4,0,0.9,0.1,1.3,0.1
						c18.5,1.7,36.8-1.3,53.4-8.5c9-3.9,17.6-9,25.5-15.3c0.1-0.1,0.1-0.1,0.2-0.2c0.2-0.2,0.4-0.3,0.6-0.5
						c22.8-18.6,37.1-45.1,40-74.4c0.4-3.8,0.6-7.6,0.6-11.3c0-25.3-8.6-49.7-24.9-69.6c-18.6-22.8-45.1-37.1-74.4-40
						c-29.3-3-58.1,5.7-80.9,24.3c-22.8,18.6-37.1,45.1-40,74.4c-0.4,3.7-0.6,7.5-0.6,11.2c0,16.2,3.5,32.1,10.4,46.8
						c0.4,0.9,0.6,1.9,0.6,2.8c0,2.5-1.4,4.8-3.8,5.9c-3.3,1.5-7.2,0.1-8.7-3.2c-7.7-16.4-11.7-34.3-11.7-52.3
						c0-4.2,0.2-8.4,0.6-12.5c3.3-32.8,19.2-62.4,44.8-83.3c25.6-20.9,57.7-30.5,90.5-27.2c32.8,3.3,62.4,19.2,83.3,44.8
						c18.2,22.3,27.8,49.5,27.8,77.9c0,4.2-0.2,8.4-0.6,12.7C2394,1217.8,2340.1,1265.3,2277.6,1265.3z"/>
				</g>
			</g>
		</g>
		<g>
			<path class="st4" d="M1663.7,3163.5H624.2V1716.9c0-76,61.6-137.6,137.6-137.6h886c76,0,137.6,61.6,137.6,137.6v1325
				C1785.3,3109.1,1730.9,3163.5,1663.7,3163.5z"/>
			<path class="st2" d="M1611.4,3163.5H450.3V1619.7c0-22.3,18.1-40.4,40.4-40.4H1571c22.3,0,40.4,18.1,40.4,40.4V3163.5z"/>
		</g>
		<g>
			<g>
				<linearGradient id="SVGID_2_" gradientUnits="userSpaceOnUse" x1="2668.1641" y1="2328.7341" x2="2391.3625" y2="2828.4138">
					<stop  offset="0" style="stop-color:#FF928E"/>
					<stop  offset="1" style="stop-color:#FE7062"/>
				</linearGradient>
				<path class="st5" d="M2842.2,2569.8c0,0-148.9-25-157.1-25h-414.6c-27.7,0-50.3,22.6-50.3,50.3v45.5c0,27.7,22.6,50.3,50.3,50.3
					h414.6c3.9,0,7.7-0.5,11.4-1.4C2745,2681.6,2793.6,2641.7,2842.2,2569.8z"/>
				<linearGradient id="SVGID_3_" gradientUnits="userSpaceOnUse" x1="1876.5009" y1="1481.4042" x2="2737.5605" y2="2073.0525">
					<stop  offset="0" style="stop-color:#E1473D"/>
					<stop  offset="1" style="stop-color:#E9605A"/>
				</linearGradient>
				<path class="st6" d="M2840.6,2576c565.1-1342.9-481.8-1344.1-351.4-73.2L2840.6,2576z"/>
				<linearGradient id="SVGID_4_" gradientUnits="userSpaceOnUse" x1="2599.4558" y1="2608.187" x2="2767.9277" y2="1587.1464">
					<stop  offset="0" style="stop-color:#FF928E"/>
					<stop  offset="1" style="stop-color:#FE7062"/>
				</linearGradient>
				<path class="st7" d="M2801.7,2563.1c565.1-1368.5-512.1-1331.9-381.7-36.8L2801.7,2563.1z"/>
				<g>
					
						<linearGradient id="SVGID_5_" gradientUnits="userSpaceOnUse" x1="12957.2227" y1="3107.9224" x2="13052.3809" y2="2509.3499" gradientTransform="matrix(1 0 0 1 -10487.1201 0)">
						<stop  offset="0" style="stop-color:#FF928E"/>
						<stop  offset="1" style="stop-color:#FE7062"/>
					</linearGradient>
					<rect x="2482.5" y="2653.7" class="st8" width="44" height="476.1"/>
					
						<linearGradient id="SVGID_6_" gradientUnits="userSpaceOnUse" x1="12993.9219" y1="3111.303" x2="13093.2314" y2="2486.614" gradientTransform="matrix(1 0 0 1 -10487.1201 0)">
						<stop  offset="0" style="stop-color:#FF928E"/>
						<stop  offset="1" style="stop-color:#FE7062"/>
					</linearGradient>
					<path class="st9" d="M2697.3,3139h-385.6v-25.8c0-1.6,1.3-2.9,2.9-2.9h379.7c1.7,0,3.1,1.4,3.1,3.1V3139z"/>
				</g>
			</g>
			<g>
				
					<linearGradient id="SVGID_7_" gradientUnits="userSpaceOnUse" x1="1024.6298" y1="2973.0269" x2="946.9099" y2="3125.8757" gradientTransform="matrix(-1 0 0 1 3188.5061 0)">
					<stop  offset="0" style="stop-color:#09005D"/>
					<stop  offset="1" style="stop-color:#1A0F91"/>
				</linearGradient>
				<path class="st10" d="M2271,3064.4c0,0-125.7,90.6-103.9,151.5c0,0,137.6-59.3,154.2-106.1c16.6-46.8-2.8-67.4-2.8-67.4
					L2271,3064.4z"/>
				
					<linearGradient id="SVGID_8_" gradientUnits="userSpaceOnUse" x1="876.8397" y1="3033.854" x2="954.2629" y2="3033.854" gradientTransform="matrix(-1 0 0 1 3188.5061 0)">
					<stop  offset="0" style="stop-color:#FEBBBA"/>
					<stop  offset="1" style="stop-color:#FF928E"/>
				</linearGradient>
				<path class="st11" d="M2289.9,2988.4l20.6,59.4c3.1,9,0,19.2-8,24.2c-4,2.5-9.5,4.9-17,6.6c-10.6,2.4-21.5-2.5-26.6-12.1
					l-24.6-46.3L2289.9,2988.4z"/>
				
					<linearGradient id="SVGID_9_" gradientUnits="userSpaceOnUse" x1="769.7" y1="2828.9966" x2="1098.713" y2="2367.8599" gradientTransform="matrix(-1 0 0 1 3188.5061 0)">
					<stop  offset="0" style="stop-color:#09005D"/>
					<stop  offset="1" style="stop-color:#1A0F91"/>
				</linearGradient>
				<path class="st12" d="M2490,2453.5c0,0-258.2,44.8-369,147.1c-110.8,102.3,101.7,428.7,101.7,428.7s34.8-0.2,77-36.4
					c0,0-126-245.5-17.4-317.1c122-80.5,262.7-98.6,262.7-98.6l-52.4-115.9L2490,2453.5z"/>
				
					<linearGradient id="SVGID_10_" gradientUnits="userSpaceOnUse" x1="979.5261" y1="3127.5676" x2="710.0969" y2="3479.8977" gradientTransform="matrix(-1 0 0 1 3188.5061 0)">
					<stop  offset="0" style="stop-color:#09005D"/>
					<stop  offset="1" style="stop-color:#1A0F91"/>
				</linearGradient>
				<path class="st13" d="M2189,3182.2c27.7-12.8,105.9-67.6,119.1-70c13.2-2.4,36.1,13.1,36.1,13.1s5.6,10-0.4,27.5
					c-18.4,22.2-59.2,64.6-114,80.4c-40.3,11.6-68.6,0.8-86.1-11.9C2153.3,3206.5,2170.6,3190.7,2189,3182.2z"/>
				
					<linearGradient id="SVGID_11_" gradientUnits="userSpaceOnUse" x1="844.6893" y1="3203.8748" x2="1052.8768" y2="3203.8748" gradientTransform="matrix(-1 0 0 1 3188.5061 0)">
					<stop  offset="0" style="stop-color:#4042E2"/>
					<stop  offset="1" style="stop-color:#4F52FF"/>
				</linearGradient>
				<path class="st14" d="M2229.8,3233.2c54.8-15.8,95.6-58.2,114-80.4c-4,11.8-13.3,27-33.1,44.8c-49.2,44.2-143.1,60.1-163.1,57.1
					c-16-2.5-14.5-17.3-3.9-33.4C2161.2,3233.9,2189.5,3244.8,2229.8,3233.2z"/>
				
					<linearGradient id="SVGID_12_" gradientUnits="userSpaceOnUse" x1="820.8535" y1="3105.3035" x2="893.517" y2="3105.3035" gradientTransform="matrix(-1 0 0 1 3188.5061 0)">
					<stop  offset="0" style="stop-color:#FEBBBA"/>
					<stop  offset="1" style="stop-color:#FF928E"/>
				</linearGradient>
				<path class="st15" d="M2367.7,3086.6c-0.3,7.6-15.9,33.7-25,48.4c-4.3,7-11.9,11.2-20.1,11.2c-5.2,0-11.2-0.4-16.6-2
					c-8.2-2.3-12.7-11-10.3-19.2l17.8-60.7L2367.7,3086.6z"/>
				
					<linearGradient id="SVGID_13_" gradientUnits="userSpaceOnUse" x1="651.1105" y1="3058.7871" x2="669.2453" y2="2442.2095" gradientTransform="matrix(-1 0 0 1 3188.5061 0)">
					<stop  offset="0" style="stop-color:#09005D"/>
					<stop  offset="1" style="stop-color:#1A0F91"/>
				</linearGradient>
				<path class="st16" d="M2738.5,2376c0,0,57.3,153.3,0,200c-57.3,46.6-194.2,99.1-224.7,192c-30.6,92.9-82.4,273.4-151.8,337.3
					c0,0-48.8-4.7-67-24.2c0,0,39.5-269.5,65.6-338.6c22.6-59.9,55.8-146.3,119.6-194.6c18.2-13.8,15.1-35.7,6.6-57l-15.4-38.7
					L2738.5,2376z"/>
				<linearGradient id="SVGID_14_" gradientUnits="userSpaceOnUse" x1="2087.3525" y1="2420.0454" x2="1717.4916" y2="2916.9756">
					<stop  offset="0" style="stop-color:#4042E2"/>
					<stop  offset="1" style="stop-color:#4F52FF"/>
				</linearGradient>
				<path class="st17" d="M2140.4,2255.8c96.2,5.8,66.2-147.8,64.5-153.9l145.9,103.1c0,0-7.7,82.2-129.1,125.2
					c-30.7,10.9-58.8,11.4-83.6,6.1C2148.8,2305.4,2146.6,2277.7,2140.4,2255.8z"/>
				
					<linearGradient id="SVGID_15_" gradientUnits="userSpaceOnUse" x1="1042.8829" y1="2267.3762" x2="1296.3578" y2="2267.3762" gradientTransform="matrix(-1 0 0 1 3188.5061 0)">
					<stop  offset="0" style="stop-color:#FEBBBA"/>
					<stop  offset="1" style="stop-color:#FF928E"/>
				</linearGradient>
				<path class="st18" d="M1954.5,2209.6c35.8-24.9,76.4,0,76.4,0c47.9,31.3,83.4,44.7,109.5,46.2c6.2,21.9,8.4,49.6-2.2,80.4
					c-53.7-11.5-92.1-50.4-108.8-70.3c-6-7.2-16.6-8.4-24-2.6c-7.5,5.9-14.7,14-13.4,22.4c2.6,16.7-16.8,22.1-18.3,16
					c-1.5-6.1,6.6-42.1,6.6-42.1s-38.9,39.1-54,54.1c-15.2,15-34.2,0-34.2,0S1918.7,2234.5,1954.5,2209.6z"/>
				
					<linearGradient id="SVGID_16_" gradientUnits="userSpaceOnUse" x1="925.9752" y1="1963.8186" x2="356.0303" y2="2378.3245" gradientTransform="matrix(-1 0 0 1 3188.5061 0)">
					<stop  offset="0" style="stop-color:#4042E2"/>
					<stop  offset="1" style="stop-color:#4F52FF"/>
				</linearGradient>
				<path class="st19" d="M2588.8,1864.6c0,0-139.9-56-400.2,158.9c0,0-21.7,45,2,85.1c23.7,40.1,249.8,235.3,280.8,343.5
					c0,0,134.7,43.8,273.9-60C2745.3,2392.2,2733,2090.9,2588.8,1864.6z"/>
				
					<linearGradient id="SVGID_17_" gradientUnits="userSpaceOnUse" x1="801.0307" y1="1893.2948" x2="969.2085" y2="1893.2948" gradientTransform="matrix(-1 0 0 1 3188.5061 0)">
					<stop  offset="0" style="stop-color:#FEBBBA"/>
					<stop  offset="1" style="stop-color:#FF928E"/>
				</linearGradient>
				<path class="st20" d="M2312.3,1814.7l68.9,83.5c6.8,8.3,8.3,19.8,3.6,29.5c-9.6,19.5-32.2,47.9-82.5,44
					c-15-1.2-28.2-10.2-34.7-23.7l-48.2-99.5L2312.3,1814.7z"/>
				
					<linearGradient id="SVGID_18_" gradientUnits="userSpaceOnUse" x1="844.2405" y1="1851.4333" x2="274.2949" y2="2265.9397" gradientTransform="matrix(-1 0 0 1 3188.5061 0)">
					<stop  offset="0" style="stop-color:#4042E2"/>
					<stop  offset="1" style="stop-color:#4F52FF"/>
				</linearGradient>
				<path class="st21" d="M2697.1,2222.2c16.2-66.1-148.3-213.6-148.3-213.6l39.9-144c0,0,355.2,236.5,264.7,426.6
					c-13,27.3-30.2,46.4-50.2,59.1C2774.7,2273.4,2729.1,2238.1,2697.1,2222.2z"/>
				<linearGradient id="SVGID_19_" gradientUnits="userSpaceOnUse" x1="2858.5562" y1="1497.5137" x2="2722.4109" y2="1846.9532">
					<stop  offset="0" style="stop-color:#09005D"/>
					<stop  offset="1" style="stop-color:#1A0F91"/>
				</linearGradient>
				<path class="st22" d="M2697.2,2212.6c1.7,0,3.3-1.2,3.8-3c16.6-67.6-142.6-211.3-149.4-217.4c-1.6-1.4-4-1.3-5.5,0.3
					c-1.4,1.6-1.3,4.1,0.3,5.5c1.6,1.5,162.6,146.6,147.1,209.8c-0.5,2.1,0.8,4.2,2.8,4.7
					C2696.6,2212.5,2696.9,2212.6,2697.2,2212.6z"/>
				
					<linearGradient id="SVGID_20_" gradientUnits="userSpaceOnUse" x1="686.3458" y1="2270.4272" x2="42.4726" y2="3389.2891" gradientTransform="matrix(-1 0 0 1 3188.5061 0)">
					<stop  offset="0" style="stop-color:#FEBBBA"/>
					<stop  offset="1" style="stop-color:#FF928E"/>
				</linearGradient>
				<path class="st23" d="M2448,2216.5c0,0,195,75.7,242.6,18.8c3.2-3.9,5.3-8.3,6.5-13.1c32,15.9,77.6,51.2,106.2,128.2
					c-102.6,65.5-277.9-36.5-325.3-66.5c-7.8-4.9-17.2-6.7-26.2-4.8c-18.3,3.8-49.9,9.4-66.9,6.7c-24.9-3.8-60.7,84.1-101.1,57
					C2283.8,2342.7,2318.4,2189.9,2448,2216.5z"/>
				<g>
					
						<linearGradient id="SVGID_21_" gradientUnits="userSpaceOnUse" x1="1343.7479" y1="226.3017" x2="1133.5063" y2="504.4341" gradientTransform="matrix(-0.9683 -0.2499 -0.2499 0.9683 3559.759 1820.1976)">
						<stop  offset="0" style="stop-color:#FEBBBA"/>
						<stop  offset="1" style="stop-color:#FF928E"/>
					</linearGradient>
					<path class="st24" d="M2162.4,1692c-0.7,2.7,16.1,185.2,16.1,185.2l104-11.8l9.7-175.3C2292.3,1690,2174,1647.1,2162.4,1692z"
						/>
					
						<linearGradient id="SVGID_22_" gradientUnits="userSpaceOnUse" x1="1183.1807" y1="293.3944" x2="1434.3154" y2="293.3944" gradientTransform="matrix(-0.9683 -0.2499 -0.2499 0.9683 3559.759 1820.1976)">
						<stop  offset="0" style="stop-color:#09005D"/>
						<stop  offset="1" style="stop-color:#1A0F91"/>
					</linearGradient>
					<path class="st25" d="M2265.2,1726.4l2.1,92.7c0,1.2-0.1,2.3-0.4,3.5c-1.8,7.1-9.8,30.8-33.7,21.2
						c-21.6-8.8-41.5-16.5-56.1-13.7c-6.6,1.2-11.1,7.3-10.5,13.9c1.5,16.6,5.7,53.9,14.2,85.7c1.7,6.5,8.2,10.5,14.8,9.3
						c19.9-3.5,61.5-12,93.5-26.8c4.3-2,7.2-6.1,7.5-10.9c1.6-23.2,6.6-93.6,11-113c4.2-18.2,28-26.8,38.3-29.7
						c3.4-0.9,6.2-3.2,7.8-6.3c5.8-10.9,15-36.6-17.1-51.1c-6.7-3-9.6-10.9-6.3-17.6c6.4-13.2,10.8-33.9-13.7-48.3
						c-24.9-14.6-46-2.8-57.8,7.4c-4.8,4.1-11.7,4.1-16.6,0.1c-2.8-2.2-6.6-3.3-11.6-0.9c-6.8,3.2-14.8-0.4-17.4-7.4
						c-4.9-13.6-16.1-28.7-42.2-27.2c-46.3,2.8-57,52.6-48.3,83.5c8.8,30.8,58.8,25,84.9,12.8c19.9-9.3,42.7,5.2,52.5,12.7
						C2263.3,1718.8,2265.1,1722.5,2265.2,1726.4z"/>
					
						<linearGradient id="SVGID_23_" gradientUnits="userSpaceOnUse" x1="1035.829" y1="446.5623" x2="1204.4574" y2="273.554" gradientTransform="matrix(-0.9683 -0.2499 -0.2499 0.9683 3559.759 1820.1976)">
						<stop  offset="0" style="stop-color:#FEBBBA"/>
						<stop  offset="1" style="stop-color:#FF928E"/>
					</linearGradient>
					<path class="st26" d="M2308,1822.1c0,0-12.9-54.4,7.7-65.1c20.6-10.7,48.3-0.9,37.9,36.3
						C2340.6,1839.6,2308,1822.1,2308,1822.1z"/>
				</g>
			</g>
			<g>
				
					<linearGradient id="SVGID_24_" gradientUnits="userSpaceOnUse" x1="12815.7705" y1="2948.7568" x2="12486.084" y2="3039.1152" gradientTransform="matrix(0.9988 -4.940000e-02 4.940000e-02 0.9988 -10528.5889 -55.0328)">
					<stop  offset="0" style="stop-color:#09005D"/>
					<stop  offset="1" style="stop-color:#1A0F91"/>
				</linearGradient>
				<path class="st27" d="M2348,2365.8c-0.3,0-0.6,0-0.9,0l-409.2-0.4c-10.1,0-18.3-8.2-18.3-18.3c0-10.1,8.2-18.5,18.3-18.3
					l409.2,0.4c10.1,0,18.3,8.2,18.3,18.3C2365.4,2357.3,2357.7,2365.3,2348,2365.8z"/>
				
					<linearGradient id="SVGID_25_" gradientUnits="userSpaceOnUse" x1="12458.376" y1="2044.106" x2="12224.4482" y2="2291.353" gradientTransform="matrix(1 0 0 1 -10487.1201 0)">
					<stop  offset="0" style="stop-color:#09005D"/>
					<stop  offset="1" style="stop-color:#1A0F91"/>
				</linearGradient>
				<path class="st28" d="M1570.1,1994.3h340.8c25.1,0,48,14.5,58.7,37.2l157.5,334.1h-423.5c-16.2,0-30.8-9.9-36.7-25l-122.2-309.1
					C1537.7,2013.6,1550.9,1994.3,1570.1,1994.3z"/>
				<path class="st4" d="M1810.2,2165.6c7.4,22.9,1.9,45.2-12.2,49.8c-14.1,4.5-31.5-10.4-38.9-33.3c-7.4-22.9-1.9-45.2,12.2-49.8
					C1785.3,2127.7,1802.8,2142.6,1810.2,2165.6z"/>
			</g>
			<g>
				<g>
					<linearGradient id="SVGID_26_" gradientUnits="userSpaceOnUse" x1="1608.1274" y1="2820.9827" x2="2003.1536" y2="2820.9827">
						<stop  offset="0" style="stop-color:#4042E2"/>
						<stop  offset="1" style="stop-color:#4F52FF"/>
					</linearGradient>
					<path class="st29" d="M1625.3,3243.4c-2.3,0-4.6-0.4-6.8-1.4c-8.7-3.6-12.8-13.4-9-21.9l360.6-811.6
						c3.8-8.4,13.9-12.3,22.6-8.7c8.7,3.6,12.8,13.4,9,21.9l-360.6,811.6C1638.3,3239.7,1632,3243.4,1625.3,3243.4z"/>
					<linearGradient id="SVGID_27_" gradientUnits="userSpaceOnUse" x1="1653.7457" y1="2820.9812" x2="2048.7717" y2="2820.9812">
						<stop  offset="0" style="stop-color:#4042E2"/>
						<stop  offset="1" style="stop-color:#4F52FF"/>
					</linearGradient>
					<path class="st30" d="M2031.6,3243.4c-6.7,0-13-3.8-15.8-10.1l-360.6-811.6c-3.8-8.4,0.3-18.2,9-21.9
						c8.7-3.6,18.8,0.3,22.6,8.7l360.6,811.6c3.8,8.4-0.3,18.2-9,21.9C2036.2,3243,2033.8,3243.4,2031.6,3243.4z"/>
					<linearGradient id="SVGID_28_" gradientUnits="userSpaceOnUse" x1="2724.4224" y1="2820.9827" x2="3119.4482" y2="2820.9827">
						<stop  offset="0" style="stop-color:#4042E2"/>
						<stop  offset="1" style="stop-color:#4F52FF"/>
					</linearGradient>
					<path class="st31" d="M2741.6,3243.4c-2.3,0-4.6-0.4-6.8-1.4c-8.7-3.6-12.8-13.4-9-21.9l360.6-811.6
						c3.8-8.4,13.9-12.3,22.6-8.7c8.7,3.6,12.8,13.4,9,21.9l-360.6,811.6C2754.6,3239.7,2748.3,3243.4,2741.6,3243.4z"/>
					<linearGradient id="SVGID_29_" gradientUnits="userSpaceOnUse" x1="2770.0378" y1="2820.9812" x2="3165.0635" y2="2820.9812">
						<stop  offset="0" style="stop-color:#4042E2"/>
						<stop  offset="1" style="stop-color:#4F52FF"/>
					</linearGradient>
					<path class="st32" d="M3147.9,3243.4c-6.7,0-13-3.8-15.8-10.1l-360.6-811.6c-3.8-8.4,0.3-18.2,9-21.9
						c8.7-3.6,18.8,0.3,22.6,8.7l360.6,811.6c3.8,8.4-0.3,18.2-9,21.9C3152.4,3243,3150.1,3243.4,3147.9,3243.4z"/>
				</g>
				<path class="st3" d="M3190.2,2383.5c0.9-5.3-0.3-10.8-3.4-15c-3.1-4.2-7.7-6.6-12.5-6.6H1533.7c-6.4,0-12.3,3.6-15.7,9.6
					c-3.4,6-3.9,13.6-1.2,20l17.8,43.1c4.1,9.9,12.9,16.2,22.6,16.2H3163c9,0,16.8-7.2,18.5-17.1L3190.2,2383.5z"/>
			</g>
		</g>
		<g>
			<path class="st4" d="M1055.6,2310.2c0,0,173.9-305.2,120-350.6c-54-45.5-54.9,86.6-76.7,67.9c-21.8-18.7,13.8-128.9,4.1-205.5
				c-9.7-76.6-30.8-179.1-58-76.1c-27.2,103-23.8,204.5-35.6,152c-11.8-52.5-52.4-325.9-104.7-244.3
				c-52.3,81.6-63.2,187.8-10.6,249.7c52.7,61.9,123.4,131,36.5,85.4c-87-45.6-146.2-25.3-53.2,57.4c0,0,139.9,115.8,79.1,110.3
				c-60.7-5.4-157.4,58.7-57.8,105C898.6,2261.3,1040.2,2281.9,1055.6,2310.2z"/>
			<linearGradient id="SVGID_30_" gradientUnits="userSpaceOnUse" x1="647.4958" y1="2361.9585" x2="1046.8799" y2="2361.9585">
				<stop  offset="0" style="stop-color:#4042E2"/>
				<stop  offset="1" style="stop-color:#4F52FF"/>
			</linearGradient>
			<path class="st33" d="M983.3,2588.5c0,0-339-16.1-324-94.6c15-78.5,125.6-25.9,174.9-20.9c49.2,5,20.3-28.7-79.9-99.3
				c-100.3-70.6-155.4-174-49.2-125.8c106.2,48.2,148.6,138.7,141.4,74.9c-7.2-63.9-143.7-243.6-28.2-170
				c115.4,73.6,107.5,141.7,111,195.4c3.5,53.7,18.9-104,55-80.5c36.1,23.5,15.6,47.6,2.7,110.1c-12.9,62.5,23.3,12.1,35.2-8.4
				c12-20.5,41.3,28.7,12.6,96.5C1005.9,2533.8,983.3,2588.5,983.3,2588.5z"/>
			<path class="st4" d="M1050.8,2945.8c-0.2,0.2-0.4,0.4-0.4,0.7c0,0,0,0.5,0,0.1l0-1l0.2-3.9l0.3-7.9l0.5-15.9l0.8-32l1.1-64
				c0.5-42.7,0.7-85.4,0.6-128.1c-0.2-85.4-1.8-170.8-5-256.1c-1.7-42.6-3.8-85.3-6.5-127.8c-2.8-42.6-6.3-85.1-10.6-127.5
				c-4.4-42.4-9.9-84.6-17.2-126.5c-7.5-41.7-16.6-83.4-31.6-122.5l-0.1-0.2c-1.5-3.8,0.4-8.1,4.3-9.6c3.8-1.5,8.1,0.4,9.6,4.2
				c16.2,40.7,25.9,82.9,34.2,125.1c8,42.3,14.2,84.8,19.2,127.4c5,42.6,9,85.3,12.4,128c3.3,42.7,6,85.5,8.3,128.3
				c4.4,85.6,7.2,171.2,8.6,256.8c0.7,42.8,1.1,85.6,1.2,128.5l-0.2,64.3l-0.4,32.2l-0.3,16.1l-0.2,8.2l-0.1,4.2l0,1
				c0,0.3-0.1,1.4-0.2,2.1c-0.2,1.6-0.4,3.1-0.8,4.7c-2.5,7.6-10.7,11.7-18.3,9.1C1052.4,2961.6,1048.3,2953.4,1050.8,2945.8z"/>
			<linearGradient id="SVGID_31_" gradientUnits="userSpaceOnUse" x1="888.8822" y1="2649.0625" x2="1077.7081" y2="2649.0625">
				<stop  offset="0" style="stop-color:#4042E2"/>
				<stop  offset="1" style="stop-color:#4F52FF"/>
			</linearGradient>
			<path class="st34" d="M1048.9,2962.3c-0.1,0.4-0.2,0.8-0.2,1.2c0,0.1,0.1,0.6,0,0.4l-0.1-0.6l-0.3-2.4l-0.8-5l-1.6-10.1
				l-3.4-20.2l-7-40.5c-4.8-27-9.8-54-14.9-80.9c-10.3-53.9-21.4-107.6-33.4-161.2c-12.1-53.5-25.1-106.8-40.1-159.4
				c-7.5-26.3-15.7-52.4-24.8-78.1c-9.2-25.6-19.3-51-32.4-74.1l-0.1-0.2c-2-3.6-0.8-8.1,2.8-10.2c3.5-2,8-0.8,10.1,2.7
				c14.6,24.4,25.3,50.1,35.3,76c9.9,25.9,18.6,52.2,26.8,78.6c16.3,52.8,30.5,106.1,43.8,159.6c13.2,53.5,25.5,107.3,37,161.1
				c5.8,26.9,11.4,53.9,16.7,81l7.9,40.6l3.8,20.4l1.8,10.2l0.9,5.2l0.4,2.7l0.1,0.7l0.2,1.6c0.1,1.2,0.2,2.5,0.1,3.7
				c-0.8,7.9-7.9,13.8-15.8,13C1054,2977.3,1048.2,2970.2,1048.9,2962.3z"/>
			<linearGradient id="SVGID_32_" gradientUnits="userSpaceOnUse" x1="1033.2037" y1="2139.2888" x2="1434.6586" y2="2139.2888">
				<stop  offset="0" style="stop-color:#4042E2"/>
				<stop  offset="1" style="stop-color:#4F52FF"/>
			</linearGradient>
			<path class="st35" d="M1121.6,2371.8c0,0,343.6-54.8,310.9-127.6c-32.8-72.9-128.2,3.9-175,20.2c-46.7,16.3-53.4,8.1,27.7-83.8
				c81.2-91.9,88.8-187.3-3.4-115.8c-92.1,71.5-60.2,137.8-68,74c-7.8-63.8,115.3-307.3,20.1-208.9
				c-95.2,98.4-106.9,182.1-97.8,235.1c9.1,53.1-42.5-96.8-72.1-65.6c-29.7,31.2-4.1,50,22.9,107.7c27,57.8-19.8,17.2-36.2,0
				c-16.4-17.2-33.6,37.5,10.2,96.8C1104.6,2363.3,1121.6,2371.8,1121.6,2371.8z"/>
			<linearGradient id="SVGID_33_" gradientUnits="userSpaceOnUse" x1="1094.0349" y1="2572.7007" x2="1172.7113" y2="2572.7007">
				<stop  offset="0" style="stop-color:#4042E2"/>
				<stop  offset="1" style="stop-color:#4F52FF"/>
			</linearGradient>
			<path class="st36" d="M1095.7,2955c-0.3-1.4-0.6-2.8-0.7-4.2c-0.1-0.6-0.2-1.6-0.2-1.9l0-0.8l-0.1-3.1l-0.2-6.1l-0.2-12.1
				l-0.2-24.1l-0.1-48.1c0.1-32.1,0.5-64.1,1.1-96.1c1.2-64.1,3.4-128.1,6.9-192.1c3.6-64,8.3-128,16-191.8
				c3.8-31.9,8.5-63.7,14.6-95.4c6.2-31.6,13.6-63.3,25.9-93.9c1.5-3.8,5.9-5.7,9.7-4.1c3.8,1.5,5.6,5.8,4.2,9.6l-0.1,0.2
				c-11.1,29-17.8,60.1-23.3,91.2c-5.4,31.2-9.5,62.8-12.7,94.4c-6.4,63.3-10,127-12.4,190.8c-2.3,63.7-3.3,127.6-3.3,191.4
				c0,31.9,0.2,63.8,0.7,95.7l0.9,47.8l0.7,23.9l0.4,11.9l0.3,5.9l0.1,2.8l0,0.7c0,0.3,0-0.3,0-0.4c-0.1-0.4-0.2-0.8-0.5-1.2
				c2.5,7.6-1.6,15.8-9.1,18.3C1106.4,2966.6,1098.2,2962.5,1095.7,2955z"/>
			<g>
				<linearGradient id="SVGID_34_" gradientUnits="userSpaceOnUse" x1="1319.5265" y1="2391.093" x2="744.3556" y2="3678.0364">
					<stop  offset="0" style="stop-color:#4042E2"/>
					<stop  offset="1" style="stop-color:#4F52FF"/>
				</linearGradient>
				<path class="st37" d="M931.2,2888.7h284.5c18.7,0,32.4,17.3,28.3,35.5c-18.2,78.9-40,158.9-84.7,240.1
					c-8.2,15-23.9,24.4-41.1,24.4h-92.8c-16.9,0-32.3-9.3-40.3-24.1c-35.8-66.5-70.2-145.7-87.2-235.6
					C894,2908.1,909.9,2888.7,931.2,2888.7z"/>
			</g>
		</g>
		<g>
			<g>
				<linearGradient id="SVGID_35_" gradientUnits="userSpaceOnUse" x1="1137.2142" y1="841.022" x2="706.0815" y2="1648.4141">
					<stop  offset="0" style="stop-color:#4042E2"/>
					<stop  offset="1" style="stop-color:#4F52FF"/>
				</linearGradient>
				<path class="st38" d="M566.7,723.9c0,0-110.5,61.2-119.6,164.8c-9.1,103.6-0.8,533.6,220.8,639.4
					c221.6,105.8,514.8,81.4,627.1,69.9c112.3-11.6,174.5-87.9,188.4-140.4c13.9-52.5,36.4-248.2-81.7-311.3
					c-118.1-63.1-242.1-159.8-366.1-254C911.7,798.1,699.3,644.4,566.7,723.9z"/>
				<linearGradient id="SVGID_36_" gradientUnits="userSpaceOnUse" x1="1396.9797" y1="1240.2509" x2="1505.0881" y2="1353.1642">
					<stop  offset="0" style="stop-color:#09005D"/>
					<stop  offset="1" style="stop-color:#1A0F91"/>
				</linearGradient>
				<path class="st39" d="M1366.8,1181.9c0,0-29.8,1.6-33.5,62.9c0,0,69.1,62,162.6,76.7c7,1.1-9.8-47.9-12.3-54.5
					C1471.6,1235.5,1433.7,1215.2,1366.8,1181.9z"/>
				<linearGradient id="SVGID_37_" gradientUnits="userSpaceOnUse" x1="1582.584" y1="201.6114" x2="1444.7439" y2="564.0798">
					<stop  offset="0" style="stop-color:#09005D"/>
					<stop  offset="1" style="stop-color:#1A0F91"/>
				</linearGradient>
				<path class="st40" d="M1031,1109.8h62.9c0,0,193.1-213.3,319.8-234.8c0,0,88.2,112.6-4.7,322.9c-7.5,16.9-28.4,24.4-44,14.5
					c-4.7-3-8-7-10-12l7.5-179.6c0,0-164.8,144.1-193.4,171.9C1140.5,1220.5,994.9,1203.5,1031,1109.8z"/>
				<linearGradient id="SVGID_38_" gradientUnits="userSpaceOnUse" x1="1540.3918" y1="1523.6636" x2="1744.8827" y2="1673.7485">
					<stop  offset="0" style="stop-color:#09005D"/>
					<stop  offset="1" style="stop-color:#1A0F91"/>
				</linearGradient>
				<path class="st41" d="M1639.4,1557.7c-26.4-23.1-68.4-49-129-56.5l-20.5,12.5c0,0,13.1,19.3,37,39.7c22,12.8,55.9,30,84,33.8
					C1638.1,1590.8,1642.2,1574.3,1639.4,1557.7z"/>
				<path class="st4" d="M1483.6,1267.1c-16.2,5.3-23.4,28.3-64.6,13.1c-39.9-14.7-69.5-33.7-84.8-44.7c-0.3,3-0.6,6.1-0.8,9.4
					c0,0,72.9,69.4,166.3,84.1c7,1.1,12.6-5.9,10-12.5C1505.2,1304.5,1497,1286.5,1483.6,1267.1z"/>
				<path class="st2" d="M1659.3,1577.4c-5.2-5.9-11.8-12.7-19.9-19.7c2.8,16.7-1.3,33.2-28.6,29.5c-28.1-3.7-62-21-84-33.8
					c27.5,23.5,69.4,48.4,122.3,46.9C1660.8,1600,1667,1586.2,1659.3,1577.4z"/>
				<linearGradient id="SVGID_39_" gradientUnits="userSpaceOnUse" x1="1648.1571" y1="226.5463" x2="1510.3167" y2="589.0155">
					<stop  offset="0" style="stop-color:#09005D"/>
					<stop  offset="1" style="stop-color:#1A0F91"/>
				</linearGradient>
				<path class="st42" d="M1033.3,1155.3l294.7,3.2c0,0,168.3,139.2,198.8,351.6c0,0,5.1,15.6-25.4,18.3c0,0-101.7-66.5-168.1-183.9
					c-81.3-144.1-242.5-79.2-242.5-79.2c-53-38.2-127.8-46-184.1-58.7L1033.3,1155.3z"/>
				<linearGradient id="SVGID_40_" gradientUnits="userSpaceOnUse" x1="1210.0138" y1="968.9802" x2="1071.1849" y2="1134.0739">
					<stop  offset="0" style="stop-color:#FEBBBA"/>
					<stop  offset="1" style="stop-color:#FF928E"/>
				</linearGradient>
				<path class="st43" d="M1040.3,917.9c0,0,31.7,159,187.2,221.9l55.3-6.5l13,20.8l-129.7,4.1c0,0-110.9-43.9-169.6-163.6
					C994.5,990.7,962.2,923.9,1040.3,917.9z"/>
				<linearGradient id="SVGID_41_" gradientUnits="userSpaceOnUse" x1="685.6011" y1="192.9772" x2="908.0323" y2="973.3423">
					<stop  offset="0" style="stop-color:#FF928E"/>
					<stop  offset="1" style="stop-color:#FE7062"/>
				</linearGradient>
				<path class="st44" d="M1057.3,1152.7c0,0-36.1-98.1-43.8-193.4c0,0,26.4-22.7,42.9-32.5c5.3-3.2,7.4-9.9,4.7-15.5
					c-12.1-25.1-85.5-123.8-91-125.2c-29.9-7.5-152.3-65.7-238.6,52.3c-37,50.6,7.3,206.5,175.3,367.9l34.6,6.6L1057.3,1152.7z"/>
				<linearGradient id="SVGID_42_" gradientUnits="userSpaceOnUse" x1="1048.1338" y1="1119.196" x2="1325.6299" y2="739.5662">
					<stop  offset="0" style="stop-color:#FEBBBA"/>
					<stop  offset="1" style="stop-color:#FF928E"/>
				</linearGradient>
				<path class="st45" d="M918.2,980.9c0,0,100.2,118.7,228.4,136c0,0,33.1-30.2,57.7-19.4c24.6,10.8,58.4,58.4,58.4,58.4h-164.5
					c0,0-155.6-5.5-233.3-99.8C871.2,1023,889.9,1003.3,918.2,980.9z"/>
				<linearGradient id="SVGID_43_" gradientUnits="userSpaceOnUse" x1="878.3813" y1="804.597" x2="888.6028" y2="712.6041">
					<stop  offset="0" style="stop-color:#FEBBBA"/>
					<stop  offset="1" style="stop-color:#FF928E"/>
				</linearGradient>
				<path class="st46" d="M859.8,703.1l-21.9,73.1c-1,3.4,0.2,7,3.1,9c10.6,7.2,38.2,21.6,76,7.6c4.3-1.6,7.3-5.6,7.7-10.2l5.2-63.7
					L859.8,703.1z"/>
				<g>
					<linearGradient id="SVGID_44_" gradientUnits="userSpaceOnUse" x1="932.8991" y1="724.352" x2="887.8464" y2="575.7578">
						<stop  offset="0" style="stop-color:#FEBBBA"/>
						<stop  offset="1" style="stop-color:#FF928E"/>
					</linearGradient>
					<path class="st47" d="M988.2,643.8c0,0-10.8,75.8-39.9,99.1c-29.1,23.3-85.9,5.8-105-51.4l38.2-97.7L988.2,643.8z"/>
					<linearGradient id="SVGID_45_" gradientUnits="userSpaceOnUse" x1="892.3347" y1="452.026" x2="934.1279" y2="690.4017">
						<stop  offset="0" style="stop-color:#09005D"/>
						<stop  offset="1" style="stop-color:#1A0F91"/>
					</linearGradient>
					<path class="st48" d="M877.1,657.1c2.2,0.7,4.5-0.7,4.9-3c1.1-7,3.7-20.9,9-30.3c0,0-2.8-9.9,25.1,5.1
						c27.9,15,69.9,37.1,94.5,24c24.1-12.8,48.5-77.3-15.2-65.4c-2.4,0.5-4.6-1.5-4.5-3.9c0.8-10.6-0.3-35-25-42.8
						c-23.1-7.3-10.7,4.5-15.9,10.8c-1.5,1.9,1.9-6.3-30.9-1.5c-11.3,1.6-25.7-28.3-53.4-16.1c-22.8,10-26.3,24.1-26,32.8
						c0.1,2.8-2.8,4.8-5.3,3.6c-7-3.2-18.2-4.9-29,8.6c-14.9,18.6,6.4,34.8,12.8,39c1,0.7,1.7,1.8,1.7,3.1c0.1,9.7,1.6,52,22.8,75.8
						c1.8,2.1,5.2,1.5,6.3-1.1l16.3-38.9c0.8-1.8,2.8-2.7,4.6-2.1L877.1,657.1z"/>
					<linearGradient id="SVGID_46_" gradientUnits="userSpaceOnUse" x1="886.234" y1="738.5006" x2="841.1813" y2="589.906">
						<stop  offset="0" style="stop-color:#FEBBBA"/>
						<stop  offset="1" style="stop-color:#FF928E"/>
					</linearGradient>
					<path class="st49" d="M877.5,665c0,0-10-40.6-25.1-27.4c-15.1,13.2,3.9,42.2,21.3,47.7L877.5,665z"/>
				</g>
				<path class="st4" d="M1254.5,1165.1l73.9-246.4c3-10.1,11.9-17.2,22.4-17.9l99.7-6.8c10.1-0.7,17.7,9.2,14.3,18.8l-82.6,235.3
					c-2.7,7.6-9.5,12.9-17.5,13.7l-98.2,10.9L1254.5,1165.1z"/>
				<path class="st2" d="M1390.7,1002.2c-5.5,11.1-15,17.7-21.3,14.6c-6.2-3.1-6.8-14.6-1.3-25.8c5.5-11.1,15-17.7,21.3-14.6
					C1395.7,979.5,1396.2,991,1390.7,1002.2z"/>
				<path class="st4" d="M1266.6,1172.7c-0.2,0-0.3,0-0.5,0l-209.3-10.6c-5.2-0.3-9.2-4.7-8.9-9.8c0.3-5.2,4.7-9.2,9.8-8.9
					l209.3,10.6c5.2,0.3,9.2,4.7,8.9,9.8C1275.7,1168.8,1271.5,1172.7,1266.6,1172.7z"/>
				<linearGradient id="SVGID_47_" gradientUnits="userSpaceOnUse" x1="994.7999" y1="907.9663" x2="1015.0928" y2="907.9663">
					<stop  offset="0" style="stop-color:#E1473D"/>
					<stop  offset="1" style="stop-color:#E9605A"/>
				</linearGradient>
				<path class="st50" d="M1013.4,961c-0.9,0-1.7-0.7-1.7-1.7c0.1-43.7-16.7-101.8-16.9-102.4c-0.3-0.9,0.2-1.8,1.1-2.1
					c0.9-0.3,1.8,0.2,2.1,1.1c0.2,0.6,17.2,59.1,17,103.3C1015.1,960.3,1014.3,961,1013.4,961z"/>
				<linearGradient id="SVGID_48_" gradientUnits="userSpaceOnUse" x1="854.8555" y1="931.7499" x2="919.9127" y2="931.7499">
					<stop  offset="0" style="stop-color:#E1473D"/>
					<stop  offset="1" style="stop-color:#E9605A"/>
				</linearGradient>
				<path class="st51" d="M918.3,982.5c-0.5,0-1-0.2-1.3-0.6c-0.5-0.6-46.2-58.8-62-98.7c-0.3-0.9,0.1-1.8,0.9-2.2
					c0.9-0.3,1.8,0.1,2.2,0.9c15.6,39.4,61,97.2,61.5,97.8c0.6,0.7,0.4,1.8-0.3,2.3C919,982.4,918.6,982.5,918.3,982.5z"/>
				<linearGradient id="SVGID_49_" gradientUnits="userSpaceOnUse" x1="744.8843" y1="1015.9172" x2="862.5188" y2="1015.9172">
					<stop  offset="0" style="stop-color:#E1473D"/>
					<stop  offset="1" style="stop-color:#E9605A"/>
				</linearGradient>
				<path class="st52" d="M853.8,1071.5l-1.2-0.5c-66.2-28.4-107.1-107.4-107.5-108.2c-0.4-0.8-0.1-1.8,0.7-2.2
					c0.8-0.4,1.8-0.1,2.2,0.7c0.4,0.8,40.3,77.8,104.7,106.1l6.8-9.6c0.5-0.8,1.6-0.9,2.3-0.4c0.8,0.5,0.9,1.6,0.4,2.3L853.8,1071.5
					z"/>
			</g>
		</g>
	</g>
</g>
</svg>
