<?xml version="1.0" encoding="utf-8"?>
<!-- Generator: Adobe Illustrator 24.3.0, SVG Export Plug-In . SVG Version: 6.00 Build 0)  -->
<svg version="1.1" id="Layer_1" xmlns="http://www.w3.org/2000/svg" xmlns:xlink="http://www.w3.org/1999/xlink" x="0px" y="0px"
	 viewBox="0 0 3710 3710" style="enable-background:new 0 0 3710 3710;" xml:space="preserve">
<style type="text/css">
	.st0{fill:url(#SVGID_1_);}
	.st1{opacity:0.5;}
	.st2{fill:#7D97F4;}
	.st3{fill:url(#SVGID_2_);}
	.st4{fill:url(#SVGID_3_);}
	.st5{fill:url(#SVGID_4_);}
	.st6{fill:url(#SVGID_5_);}
	.st7{fill:url(#SVGID_6_);}
	.st8{fill:url(#SVGID_7_);}
	.st9{fill:url(#SVGID_8_);}
	.st10{fill:url(#SVGID_9_);}
	.st11{fill:url(#SVGID_10_);}
	.st12{fill:#91B3FA;}
	.st13{fill:url(#SVGID_11_);}
	.st14{fill:url(#SVGID_12_);}
	.st15{fill:url(#SVGID_13_);}
	.st16{fill:url(#SVGID_14_);}
	.st17{fill:url(#SVGID_15_);}
	.st18{fill:url(#SVGID_16_);}
	.st19{fill:url(#SVGID_17_);}
	.st20{fill:url(#SVGID_18_);}
	.st21{fill:url(#SVGID_19_);}
	.st22{fill:url(#SVGID_20_);}
	.st23{fill:url(#SVGID_21_);}
</style>
<g id="Background">
</g>
<g id="Illustration">
	<g>
		<linearGradient id="SVGID_1_" gradientUnits="userSpaceOnUse" x1="3118.7214" y1="1851.9463" x2="1487.0616" y2="3613.1033">
			<stop  offset="0" style="stop-color:#DAE3FE"/>
			<stop  offset="1" style="stop-color:#E9EFFD"/>
		</linearGradient>
		<ellipse class="st0" cx="1855" cy="3216" rx="1516.6" ry="343.1"/>
		<g class="st1">
			<path class="st2" d="M1851.2,1533.8c0,0,371.2-651.5,256.2-748.4c-115.3-97.1-117.2,184.9-163.7,144.9
				c-46.5-39.9,29.5-275.2,8.8-438.7c-20.7-163.5-65.7-382.3-123.8-162.5c-58.1,219.9-50.8,436.5-76,324.5s-111.9-695.7-223.5-521.5
				s-134.9,400.9-22.6,533c112.5,132.1,263.4,279.6,77.9,182.3c-185.7-97.3-312.1-54-113.6,122.5c0,0,298.6,247.2,168.9,235.5
				c-129.6-11.5-336,125.3-123.4,224.1C1516.1,1429.4,1818.3,1473.4,1851.2,1533.8z"/>
			
				<linearGradient id="SVGID_2_" gradientUnits="userSpaceOnUse" x1="980.1049" y1="2064.6965" x2="1832.8745" y2="2064.6965" gradientTransform="matrix(1 0 0 -1 0 3708.9419)">
				<stop  offset="0" style="stop-color:#4042E2"/>
				<stop  offset="1" style="stop-color:#4F52FF"/>
			</linearGradient>
			<path class="st3" d="M1696.9,2127.9c0,0-723.7-34.4-691.6-201.9s268.1-55.3,373.4-44.6c105,10.7,43.3-61.3-170.6-212
				c-214.1-150.7-331.7-371.4-105-268.5c226.7,102.9,317.2,296.1,301.8,159.9c-15.4-136.4-306.8-520-60.2-362.9
				c246.3,157.1,229.5,302.5,237,417.1c7.5,114.6,40.3-222,117.4-171.8s33.3,101.6,5.8,235c-27.5,133.4,49.7,25.8,75.1-17.9
				c25.6-43.8,88.2,61.3,26.9,206C1745.1,2011.1,1696.9,2127.9,1696.9,2127.9z"/>
			<path class="st2" d="M1841,2890.6c-0.4,0.4-0.9,0.9-0.9,1.5c0,0,0,1.1,0,0.2v-2.1l0.4-8.3l0.6-16.9l1.1-33.9l1.7-68.3l2.3-136.6
				c1.1-91.2,1.5-182.3,1.3-273.5c-0.4-182.3-3.8-364.6-10.7-546.7c-3.6-90.9-8.1-182.1-13.9-272.8c-6-90.9-13.4-181.7-22.6-272.2
				c-9.4-90.5-21.1-180.6-36.7-270c-16-89-35.4-178-67.5-261.5l-0.2-0.4c-3.2-8.1,0.9-17.3,9.2-20.5c8.1-3.2,17.3,0.9,20.5,9
				c34.6,86.9,55.3,177,73,267.1c17.1,90.3,30.3,181,41,272c10.7,90.9,19.2,182.1,26.5,273.2c7,91.2,12.8,182.5,17.7,273.9
				c9.4,182.7,15.4,365.5,18.4,548.2c1.5,91.4,2.3,182.7,2.6,274.3l-0.4,137.3l-0.9,68.7l-0.6,34.4l-0.4,17.5l-0.2,9v2.1
				c0,0.6-0.2,3-0.4,4.5c-0.4,3.4-0.9,6.6-1.7,10c-5.3,16.2-22.8,25-39.1,19.4C1844.4,2924.3,1835.6,2906.8,1841,2890.6z"/>
			
				<linearGradient id="SVGID_3_" gradientUnits="userSpaceOnUse" x1="1495.2135" y1="1451.7051" x2="1898.0441" y2="1451.7051" gradientTransform="matrix(1 0 0 -1 0 3708.9419)">
				<stop  offset="0" style="stop-color:#4042E2"/>
				<stop  offset="1" style="stop-color:#4F52FF"/>
			</linearGradient>
			<path class="st4" d="M1836.9,2925.8c-0.2,0.9-0.4,1.7-0.4,2.6c0,0.2,0.2,1.3,0,0.9l-0.2-1.3l-0.6-5.1l-1.7-10.7l-3.4-21.6
				l-7.3-43.1l-14.9-86.5c-10.2-57.6-20.9-115.3-31.8-172.7c-22-115.1-45.7-229.7-71.3-344.1c-25.8-114.2-53.6-228-85.6-340.3
				c-16-56.1-33.5-111.9-52.9-166.7c-19.6-54.6-41.2-108.9-69.2-158.2l-0.2-0.4c-4.3-7.7-1.7-17.3,6-21.8c7.5-4.3,17.1-1.7,21.6,5.8
				c31.2,52.1,54,106.9,75.4,162.2c21.1,55.3,39.7,111.4,57.2,167.8c34.8,112.7,65.1,226.5,93.5,340.7
				c28.2,114.2,54.4,229.1,79,343.9c12.4,57.4,24.3,115.1,35.6,172.9l16.9,86.7l8.1,43.5l3.8,21.8l1.9,11.1l0.9,5.8l0.2,1.5l0.4,3.4
				c0.2,2.6,0.4,5.3,0.2,7.9c-1.7,16.9-16.9,29.5-33.7,27.8C1847.8,2957.8,1835.4,2942.7,1836.9,2925.8z"/>
			
				<linearGradient id="SVGID_4_" gradientUnits="userSpaceOnUse" x1="1803.2816" y1="2540.0168" x2="2660.4634" y2="2540.0168" gradientTransform="matrix(1 0 0 -1 0 3708.9419)">
				<stop  offset="0" style="stop-color:#4042E2"/>
				<stop  offset="1" style="stop-color:#4F52FF"/>
			</linearGradient>
			<path class="st5" d="M1992.1,1665.3c0,0,733.5-117,663.7-272.4c-70-155.6-273.7,8.3-373.6,43.1c-99.7,34.8-114,17.3,59.1-178.9
				c173.3-196.2,189.6-399.8-7.3-247.2c-196.6,152.6-128.5,294.2-145.2,158s246.1-656,42.9-445.9
				c-203.2,210.1-228.2,388.7-208.8,501.9c19.4,113.4-90.7-206.6-153.9-140c-63.4,66.6-8.8,106.7,48.9,229.9
				c57.6,123.4-42.3,36.7-77.3,0c-35-36.7-71.7,80.1,21.8,206.6C1955.8,1647.1,1992.1,1665.3,1992.1,1665.3z"/>
			
				<linearGradient id="SVGID_5_" gradientUnits="userSpaceOnUse" x1="1933.1793" y1="1614.6803" x2="2101.1309" y2="1614.6803" gradientTransform="matrix(1 0 0 -1 0 3708.9419)">
				<stop  offset="0" style="stop-color:#4042E2"/>
				<stop  offset="1" style="stop-color:#4F52FF"/>
			</linearGradient>
			<path class="st6" d="M1936.8,2910.2c-0.6-3-1.3-6-1.5-9c-0.2-1.3-0.4-3.4-0.4-4.1v-1.7l-0.2-6.6l-0.4-13l-0.4-25.8l-0.4-51.4
				l-0.2-102.7c0.2-68.5,1.1-136.8,2.3-205.1c2.6-136.8,7.3-273.5,14.7-410.1c7.7-136.6,17.7-273.2,34.2-409.4
				c8.1-68.1,18.1-136,31.2-203.7c13.2-67.5,29-135.1,55.3-200.4c3.2-8.1,12.6-12.2,20.7-8.8c8.1,3.2,12,12.4,9,20.5l-0.2,0.4
				c-23.7,61.9-38,128.3-49.7,194.7c-11.5,66.6-20.3,134.1-27.1,201.5c-13.7,135.1-21.3,271.1-26.5,407.3c-4.9,136-7,272.4-7,408.6
				c0,68.1,0.4,136.2,1.5,204.3l1.9,102l1.5,51l0.9,25.4l0.6,12.6l0.2,6v1.5c0,0.6,0-0.6,0-0.9c-0.2-0.9-0.4-1.7-1.1-2.6
				c5.3,16.2-3.4,33.7-19.4,39.1C1959.6,2935,1942.1,2926.2,1936.8,2910.2z"/>
			<g>
				
					<linearGradient id="SVGID_6_" gradientUnits="userSpaceOnUse" x1="2414.5959" y1="2002.49" x2="1186.7708" y2="-744.7655" gradientTransform="matrix(1 0 0 -1 0 3708.9419)">
					<stop  offset="0" style="stop-color:#4042E2"/>
					<stop  offset="1" style="stop-color:#4F52FF"/>
				</linearGradient>
				<path class="st7" d="M1585.6,2768.7H2193c39.9,0,69.2,36.9,60.4,75.8c-38.9,168.4-85.4,339.2-180.8,512.5
					c-17.5,32-51,52.1-87.7,52.1h-198.1c-36.1,0-69-19.9-86-51.4c-76.4-142-149.9-311-186.1-502.9
					C1506.2,2810.1,1540.2,2768.7,1585.6,2768.7z"/>
			</g>
		</g>
		<g>
			<g>
				
					<linearGradient id="SVGID_7_" gradientUnits="userSpaceOnUse" x1="1895.7477" y1="2026.964" x2="975.4026" y2="303.4131" gradientTransform="matrix(1 0 0 -1 0 3708.9419)">
					<stop  offset="0" style="stop-color:#4042E2"/>
					<stop  offset="1" style="stop-color:#4F52FF"/>
				</linearGradient>
				<path class="st8" d="M677.9,1432c0,0-235.9,130.6-255.3,351.8s-1.7,1139.1,471.3,1364.9s1099,173.8,1338.7,149.2
					c239.7-24.8,372.5-187.6,402.2-299.7s77.7-529.8-174.4-664.5c-252.1-134.7-516.8-341.1-781.5-542.2
					C1414.3,1590.4,960.9,1262.2,677.9,1432z"/>
				
					<linearGradient id="SVGID_8_" gradientUnits="userSpaceOnUse" x1="2450.3135" y1="1174.7604" x2="2681.094" y2="933.7227" gradientTransform="matrix(1 0 0 -1 0 3708.9419)">
					<stop  offset="0" style="stop-color:#09005D"/>
					<stop  offset="1" style="stop-color:#1A0F91"/>
				</linearGradient>
				<path class="st9" d="M2385.8,2409.7c0,0-63.6,3.4-71.5,134.3c0,0,147.5,132.4,347.1,163.7c14.9,2.3-20.9-102.3-26.3-116.3
					C2609.6,2524.1,2528.7,2480.7,2385.8,2409.7z"/>
				
					<linearGradient id="SVGID_9_" gradientUnits="userSpaceOnUse" x1="2846.4553" y1="3391.9333" x2="2552.2061" y2="2618.167" gradientTransform="matrix(1 0 0 -1 0 3708.9419)">
					<stop  offset="0" style="stop-color:#09005D"/>
					<stop  offset="1" style="stop-color:#1A0F91"/>
				</linearGradient>
				<path class="st10" d="M1669,2255.7h134.3c0,0,412.2-455.3,682.7-501.2c0,0,188.3,240.4-10,689.3c-16,36.1-60.6,52.1-93.9,31
					c-10-6.4-17.1-14.9-21.3-25.6l16-383.4c0,0-351.8,307.6-412.9,367C1902.8,2492.1,1591.9,2455.8,1669,2255.7z"/>
				
					<linearGradient id="SVGID_10_" gradientUnits="userSpaceOnUse" x1="2756.4321" y1="569.7368" x2="3192.9617" y2="249.3483" gradientTransform="matrix(1 0 0 -1 0 3708.9419)">
					<stop  offset="0" style="stop-color:#09005D"/>
					<stop  offset="1" style="stop-color:#1A0F91"/>
				</linearGradient>
				<path class="st11" d="M2967.8,3211.9c-56.4-49.3-146-104.6-275.4-120.6l-43.8,26.7c0,0,28,41.2,79,84.7
					c47,27.3,119.3,64,179.3,72.2C2965,3282.5,2973.8,3247.3,2967.8,3211.9z"/>
				<path class="st2" d="M2635.2,2591.5c-34.6,11.3-50,60.4-137.9,28c-85.2-31.4-148.4-71.9-181-95.4c-0.6,6.4-1.3,13-1.7,20.1
					c0,0,155.6,148.1,355,179.5c14.9,2.3,26.9-12.6,21.3-26.7C2681.3,2671.4,2663.8,2632.9,2635.2,2591.5z"/>
				<path class="st12" d="M3010.3,3253.9c-11.1-12.6-25.2-27.1-42.5-42.1c6,35.6-2.8,70.9-61.1,63c-60-7.9-132.4-44.8-179.3-72.2
					c58.7,50.2,148.1,103.3,261.1,100.1C3013.5,3302.2,3026.7,3272.7,3010.3,3253.9z"/>
				
					<linearGradient id="SVGID_11_" gradientUnits="userSpaceOnUse" x1="2986.4824" y1="3338.6863" x2="2692.2324" y2="2564.9185" gradientTransform="matrix(1 0 0 -1 0 3708.9419)">
					<stop  offset="0" style="stop-color:#09005D"/>
					<stop  offset="1" style="stop-color:#1A0F91"/>
				</linearGradient>
				<path class="st13" d="M1673.9,2352.9l629.1,6.8c0,0,359.3,297.2,424.4,750.6c0,0,10.9,33.3-54.2,39.1c0,0-217.1-142-358.8-392.6
					c-173.6-307.6-517.7-169.1-517.7-169.1c-113.1-81.5-272.8-98.2-393-125.3L1673.9,2352.9z"/>
				
					<linearGradient id="SVGID_12_" gradientUnits="userSpaceOnUse" x1="2051.1658" y1="1753.8005" x2="1754.8058" y2="1401.3729" gradientTransform="matrix(1 0 0 -1 0 3708.9419)">
					<stop  offset="0" style="stop-color:#FEBBBA"/>
					<stop  offset="1" style="stop-color:#FF928E"/>
				</linearGradient>
				<path class="st14" d="M1688.9,1846.1c0,0,67.7,339.4,399.6,473.7l118-13.9l27.8,44.4l-276.9,8.8c0,0-236.7-93.7-362-349.2
					C1591.1,2001.5,1522.1,1858.9,1688.9,1846.1z"/>
				
					<linearGradient id="SVGID_13_" gradientUnits="userSpaceOnUse" x1="931.9826" y1="3410.4375" x2="1406.8094" y2="1744.5815" gradientTransform="matrix(1 0 0 -1 0 3708.9419)">
					<stop  offset="0" style="stop-color:#FF928E"/>
					<stop  offset="1" style="stop-color:#FE7062"/>
				</linearGradient>
				<path class="st15" d="M1725.2,2347.3c0,0-77.1-209.4-93.5-412.9c0,0,56.4-48.5,91.6-69.4c11.3-6.8,15.8-21.1,10-33.1
					c-25.8-53.6-182.5-264.3-194.3-267.3c-63.8-16-325.1-140.3-509.3,111.6c-79,108,15.6,440.8,374.2,785.4l73.9,14.1L1725.2,2347.3
					z"/>
				
					<linearGradient id="SVGID_14_" gradientUnits="userSpaceOnUse" x1="1705.59" y1="1433.1398" x2="2297.9646" y2="2243.5408" gradientTransform="matrix(1 0 0 -1 0 3708.9419)">
					<stop  offset="0" style="stop-color:#FEBBBA"/>
					<stop  offset="1" style="stop-color:#FF928E"/>
				</linearGradient>
				<path class="st16" d="M1428.2,1980.6c0,0,213.9,253.4,487.6,290.3c0,0,70.7-64.5,123.2-41.4s124.7,124.7,124.7,124.7h-351.2
					c0,0-332.2-11.7-498-213C1327.9,2070.5,1367.8,2028.4,1428.2,1980.6z"/>
				
					<linearGradient id="SVGID_15_" gradientUnits="userSpaceOnUse" x1="1343.3304" y1="2104.7068" x2="1365.1504" y2="2301.0852" gradientTransform="matrix(1 0 0 -1 0 3708.9419)">
					<stop  offset="0" style="stop-color:#FEBBBA"/>
					<stop  offset="1" style="stop-color:#FF928E"/>
				</linearGradient>
				<path class="st17" d="M1303.6,1387.6l-46.8,156c-2.1,7.3,0.4,14.9,6.6,19.2c22.6,15.4,81.5,46.1,162.2,16.2
					c9.2-3.4,15.6-12,16.4-21.8l11.1-136L1303.6,1387.6z"/>
				<g>
					
						<linearGradient id="SVGID_16_" gradientUnits="userSpaceOnUse" x1="1459.6788" y1="2276.0449" x2="1363.5042" y2="2593.251" gradientTransform="matrix(1 0 0 -1 0 3708.9419)">
						<stop  offset="0" style="stop-color:#FEBBBA"/>
						<stop  offset="1" style="stop-color:#FF928E"/>
					</linearGradient>
					<path class="st18" d="M1577.6,1261c0,0-23.1,161.8-85.2,211.6c-62.1,49.7-183.4,12.4-224.1-109.7l81.5-208.6L1577.6,1261z"/>
					
						<linearGradient id="SVGID_17_" gradientUnits="userSpaceOnUse" x1="1372.6962" y1="2857.304" x2="1461.9127" y2="2348.4402" gradientTransform="matrix(1 0 0 -1 0 3708.9419)">
						<stop  offset="0" style="stop-color:#09005D"/>
						<stop  offset="1" style="stop-color:#1A0F91"/>
					</linearGradient>
					<path class="st19" d="M1340.5,1289.4c4.7,1.5,9.6-1.5,10.5-6.4c2.3-14.9,7.9-44.6,19.2-64.7c0,0-6-21.1,53.6,10.9
						c59.6,32,149.2,79.2,201.7,51.2c51.4-27.3,103.5-165-32.4-139.6c-5.1,1.1-9.8-3.2-9.6-8.3c1.7-22.6-0.6-74.7-53.4-91.4
						c-49.3-15.6-22.8,9.6-33.9,23.1c-3.2,4.1,4.1-13.4-66-3.2c-24.1,3.4-54.9-60.4-114-34.4c-48.7,21.3-56.1,51.4-55.5,70
						c0.2,6-6,10.2-11.3,7.7c-14.9-6.8-38.9-10.5-61.9,18.4c-31.8,39.7,13.7,74.3,27.3,83.3c2.1,1.5,3.6,3.8,3.6,6.6
						c0.2,20.7,3.4,111,48.7,161.8c3.8,4.5,11.1,3.2,13.4-2.3l34.8-83c1.7-3.8,6-5.8,9.8-4.5L1340.5,1289.4z"/>
					
						<linearGradient id="SVGID_18_" gradientUnits="userSpaceOnUse" x1="1359.9884" y1="2245.8193" x2="1263.8137" y2="2563.0261" gradientTransform="matrix(1 0 0 -1 0 3708.9419)">
						<stop  offset="0" style="stop-color:#FEBBBA"/>
						<stop  offset="1" style="stop-color:#FF928E"/>
					</linearGradient>
					<path class="st20" d="M1341.3,1306.2c0,0-21.3-86.7-53.6-58.5c-32.2,28.2,8.3,90.1,45.5,101.8L1341.3,1306.2z"/>
				</g>
				<path class="st2" d="M2146.1,2373.8l157.8-526c6.4-21.6,25.4-36.7,47.8-38.2l212.8-14.5c21.6-1.5,37.8,19.6,30.5,40.1
					l-176.3,502.3c-5.8,16.2-20.3,27.5-37.4,29.2l-209.6,23.3L2146.1,2373.8z"/>
				<path class="st12" d="M2436.9,2026c-11.7,23.7-32,37.8-45.5,31.2c-13.2-6.6-14.5-31.2-2.8-55.1c11.7-23.7,32-37.8,45.5-31.2
					C2447.5,1977.6,2448.6,2002.1,2436.9,2026z"/>
				<path class="st2" d="M2172,2390c-0.4,0-0.6,0-1.1,0l-446.8-22.6c-11.1-0.6-19.6-10-19-20.9c0.6-11.1,10-19.6,20.9-19l446.8,22.6
					c11.1,0.6,19.6,10,19,20.9C2191.4,2381.7,2182.4,2390,2172,2390z"/>
				
					<linearGradient id="SVGID_19_" gradientUnits="userSpaceOnUse" x1="1591.7362" y1="1884.2904" x2="1635.0616" y2="1884.2904" gradientTransform="matrix(1 0 0 -1 0 3708.9419)">
					<stop  offset="0" style="stop-color:#E1473D"/>
					<stop  offset="1" style="stop-color:#E9605A"/>
				</linearGradient>
				<path class="st21" d="M1631.4,1938.1c-1.9,0-3.6-1.5-3.6-3.6c0.2-93.3-35.6-217.3-36.1-218.6c-0.6-1.9,0.4-3.8,2.3-4.5
					c1.9-0.6,3.8,0.4,4.5,2.3c0.4,1.3,36.7,126.2,36.3,220.5C1635.1,1936.6,1633.4,1938.1,1631.4,1938.1z"/>
				
					<linearGradient id="SVGID_20_" gradientUnits="userSpaceOnUse" x1="1293.0908" y1="1833.3906" x2="1431.9644" y2="1833.3906" gradientTransform="matrix(1 0 0 -1 0 3708.9419)">
					<stop  offset="0" style="stop-color:#E1473D"/>
					<stop  offset="1" style="stop-color:#E9605A"/>
				</linearGradient>
				<path class="st22" d="M1428.4,1984c-1.1,0-2.1-0.4-2.8-1.3c-1.1-1.3-98.6-125.5-132.4-210.7c-0.6-1.9,0.2-3.8,1.9-4.7
					c1.9-0.6,3.8,0.2,4.7,1.9c33.3,84.1,130.2,207.5,131.3,208.8c1.3,1.5,0.9,3.8-0.6,4.9C1429.9,1983.8,1429.1,1984,1428.4,1984z"
					/>
				
					<linearGradient id="SVGID_21_" gradientUnits="userSpaceOnUse" x1="1058.3218" y1="1653.5164" x2="1309.3258" y2="1653.5164" gradientTransform="matrix(1 0 0 -1 0 3708.9419)">
					<stop  offset="0" style="stop-color:#E1473D"/>
					<stop  offset="1" style="stop-color:#E9605A"/>
				</linearGradient>
				<path class="st23" d="M1290.7,2174l-2.6-1.1c-141.3-60.6-228.6-229.3-229.5-231c-0.9-1.7-0.2-3.8,1.5-4.7
					c1.7-0.9,3.8-0.2,4.7,1.5s86,166.1,223.5,226.5l14.5-20.5c1.1-1.7,3.4-1.9,4.9-0.9c1.7,1.1,1.9,3.4,0.9,4.9L1290.7,2174z"/>
			</g>
		</g>
	</g>
</g>
</svg>
