<?xml version="1.0" encoding="utf-8"?>
<!-- Generator: Adobe Illustrator 23.0.1, SVG Export Plug-In . SVG Version: 6.00 Build 0)  -->
<svg version="1.1" id="Capa_1" xmlns="http://www.w3.org/2000/svg" xmlns:xlink="http://www.w3.org/1999/xlink" x="0px" y="0px"
	 viewBox="0 0 468.3 468.3" style="enable-background:new 0 0 468.3 468.3;" xml:space="preserve">
<style type="text/css">
	.st0{fill:#5DC1D8;}
	.st1{fill:#3A556A;}
	.st2{fill:#D5D6DB;}
	.st3{fill:#EBF0F3;}
	.st4{fill:#FCD462;}
	.st5{fill:#E1E6E9;}
	.st6{fill:#27A2DB;}
	.st7{fill:#E56353;}
	.st8{fill:#44C4A1;}
	.st9{fill:#1C75A1;}
</style>
<circle class="st0" cx="234.1" cy="234.1" r="221.9"/>
<g>
	<path class="st1" d="M396.9,63.3H0.8V10.5c0-5.8,4.7-10.6,10.6-10.6h374.9c5.8,0,10.6,4.7,10.6,10.6V63.3z"/>
	<path class="st2" d="M396.9,63.3H180.3l32.2-36.8c3-3.4,7.4-5.4,11.9-5.4h172.4V63.3z"/>
	<path class="st3" d="M381,338.6H16.6c-8.8,0-15.8-7.1-15.8-15.8V63.3h396.1v259.5C396.9,331.5,389.8,338.6,381,338.6z"/>
	<circle class="st4" cx="50" cy="31.6" r="15.8"/>
	<circle class="st5" cx="97.5" cy="31.6" r="15.8"/>
	<circle class="st6" cx="145" cy="31.6" r="15.8"/>
	<rect x="34.1" y="101" class="st7" width="95.1" height="95.1"/>
	<rect x="34.1" y="218.7" class="st8" width="95.1" height="29.7"/>
	<rect x="34.1" y="271.2" class="st9" width="95.1" height="29.7"/>
	<g>
		<rect x="161.7" y="116.7" class="st2" width="201.8" height="10.6"/>
		<rect x="161.7" y="143.3" class="st2" width="201.8" height="10.6"/>
		<rect x="161.7" y="169.7" class="st2" width="201.8" height="10.6"/>
		<rect x="161.7" y="228.1" class="st2" width="201.8" height="10.6"/>
		<rect x="161.7" y="254.6" class="st2" width="201.8" height="10.6"/>
		<rect x="161.7" y="281" class="st2" width="201.8" height="10.6"/>
	</g>
</g>
</svg>
