<?xml version="1.0" encoding="utf-8"?>
<!-- Generator: Adobe Illustrator 23.0.1, SVG Export Plug-In . SVG Version: 6.00 Build 0)  -->
<svg version="1.1" id="Layer_1" xmlns="http://www.w3.org/2000/svg" xmlns:xlink="http://www.w3.org/1999/xlink" x="0px" y="0px"
	 viewBox="0 0 512 512" style="enable-background:new 0 0 512 512;" xml:space="preserve">
<style type="text/css">
	.st0{fill:#5DC1D8;}
	.st1{fill:#FFFFFF;}
	.st2{fill:#F7F7F7;}
	.st3{fill:#F6F1F1;}
	.st4{fill:#827DDC;}
	.st5{fill:#EFE7E4;}
	.st6{fill:#6E64C3;}
	.st7{fill:#26457D;}
	.st8{fill:#4A80AA;}
	.st9{fill:#528ECB;}
	.st10{fill:#FA503C;}
	.st11{fill:#FA735F;}
	.st12{fill:#365E7D;}
</style>
<circle class="st0" cx="256" cy="267" r="245"/>
<g>
	<polygon class="st1" points="518.2,532.9 509.6,541.8 379.2,416 415.4,378.6 425.3,388.2 533.1,509.1 	"/>
	<polygon class="st2" points="549.7,491.9 522.2,520.4 402.6,405.2 429.3,375.8 	"/>
	<g>
		<g>
			<g>
				<g>
					<g>
						<path class="st3" d="M131,55.1l23.6,281.2h237.9c11.8,0,21.4-9.6,21.4-21.4V68.3L131,55.1z"/>
					</g>
					<path class="st4" d="M413.9,44.1l-0.2-20.8c-0.1-12.6-10.4-22.8-23-22.8h-30.3H154.6l-12.7,35.4l12.7,32.3h259.3L413.9,44.1
						L413.9,44.1z"/>
					<g>
						<g>
							<path class="st5" d="M131,55.1L0,68.3v246.6c0,11.8,9.6,21.4,21.4,21.4h133.2v-268L131,55.1z"/>
						</g>
					</g>
					<g>
						<g>
							<path class="st6" d="M154.6,0.5H21.4C9.6,0.5,0,10.1,0,21.9v46.3h154.6V0.5z"/>
						</g>
					</g>
					<g>
						<g>
							<path class="st1" d="M31.4,49.8h19.5c2.3,0,4.2-1.9,4.2-4.2V26.2c0-2.3-1.9-4.2-4.2-4.2H31.4c-2.3,0-4.2,1.9-4.2,4.2v19.5
								C27.2,48,29.1,49.8,31.4,49.8z"/>
						</g>
					</g>
					<g>
						<g>
							<path class="st1" d="M74.8,49.8h19.5c2.3,0,4.2-1.9,4.2-4.2V26.2c0-2.3-1.9-4.2-4.2-4.2H74.8c-2.3,0-4.2,1.9-4.2,4.2v19.5
								C70.7,48,72.5,49.8,74.8,49.8z"/>
						</g>
					</g>
					<g>
						<g>
							<path class="st1" d="M118.3,49.8h19.5c2.3,0,4.2-1.9,4.2-4.2V26.2c0-2.3-1.9-4.2-4.2-4.2h-19.5c-2.3,0-4.2,1.9-4.2,4.2v19.5
								C114.1,48,116,49.8,118.3,49.8z"/>
						</g>
					</g>
					<g>
						<g>
							<path class="st1" d="M212.5,30h162.3v17.5H212.5V30z"/>
						</g>
					</g>
				</g>
				<g>
					<path class="st1" d="M154.6,125.7h168.5v24.8H154.6L154.6,125.7z"/>
				</g>
				<g>
					<path class="st1" d="M323.1,204.6H154.6v-24.8h153.8c8.1,0,14.7,6.6,14.7,14.7L323.1,204.6L323.1,204.6z"/>
				</g>
				<g>
					<path class="st1" d="M154.6,233.8h168.5v24.8H154.6L154.6,233.8z"/>
				</g>
				<g>
					<g>
						<path class="st3" d="M84.5,125.7h70.1v24.8H84.5L84.5,125.7z"/>
					</g>
				</g>
				<g>
					<g>
						<path class="st3" d="M84.5,179.7h70.1v24.8H84.5L84.5,179.7z"/>
					</g>
				</g>
				<g>
					<g>
						<path class="st3" d="M84.5,233.8h70.1v24.8H84.5L84.5,233.8z"/>
					</g>
				</g>
			</g>
			<g>
				<g>
					<g>
						<g>
							<path class="st7" d="M199,196.1c-1.3,0-2.6-0.3-3.9-1L143,166.4v-62.7c0-4.4,3.6-8,8-8c4.4,0,8,3.6,8,8v53.2l43.8,24.1
								c3.9,2.1,5.3,7,3.2,10.9C204.6,194.6,201.8,196.1,199,196.1z"/>
						</g>
						<g>
							<path class="st7" d="M93.6,256.5c-2.5,0-5-1.2-6.6-3.4c-2.5-3.6-1.7-8.6,2-11.2l55.1-38.7H199c4.4,0,8,3.6,8,8
								c0,4.4-3.6,8-8,8h-49.8l-50.9,35.8C96.8,256.1,95.2,256.5,93.6,256.5z"/>
						</g>
						<g>
							<path class="st7" d="M396.8,256.5c2.5,0,5-1.2,6.6-3.4c2.5-3.6,1.7-8.6-2-11.2l-55.1-38.7h-54.9c-4.4,0-8,3.6-8,8
								c0,4.4,3.6,8,8,8h49.8l50.9,35.8C393.6,256.1,395.2,256.5,396.8,256.5z"/>
						</g>
						<g>
							<path class="st7" d="M143.4,363.9c-4.4,0-8-3.6-8-8v-69.2l48.1-50.2c3.1-3.2,8.2-3.3,11.4-0.2c3.2,3.1,3.3,8.2,0.2,11.4
								l-43.7,45.6v62.8C151.4,360.3,147.8,363.9,143.4,363.9L143.4,363.9z"/>
						</g>
					</g>
					<g>
						<g>
							<path class="st7" d="M290.6,196.1c-2.8,0-5.6-1.5-7-4.2c-2.1-3.9-0.7-8.8,3.2-10.9l43.8-24.1v-53.2c0-4.4,3.6-8,8-8
								c4.4,0,8,3.6,8,8v62.7l-52.2,28.7C293.2,195.7,291.9,196.1,290.6,196.1z"/>
						</g>
						<g>
							<path class="st7" d="M346.2,363.9c-4.4,0-8-3.6-8-8v-62.8l-43.7-45.6c-3.1-3.2-3-8.3,0.2-11.4c3.2-3.1,8.3-3,11.4,0.2
								l48.1,50.2v69.2C354.3,360.3,350.7,363.9,346.2,363.9z"/>
						</g>
					</g>
				</g>
				<g>
					<path class="st8" d="M266.9,188h-42.7c-8.7,0-15.8-7.1-15.8-15.8v-8.1c0-20.5,16.6-37.1,37.1-37.1s37.1,16.6,37.1,37.1v8.1
						C282.7,180.9,275.6,188,266.9,188L266.9,188z"/>
				</g>
				<g>
					<path class="st9" d="M308,264.2H183.1v-66.7c0-19.8,16.1-35.9,35.9-35.9h53c19.8,0,35.9,16.1,35.9,35.9L308,264.2L308,264.2z"
						/>
				</g>
				<g>
					<path class="st10" d="M176.9,196c-13.2,18.8-21.2,43.1-21.2,69.7c0,59.6,40.1,107.9,89.6,107.9l0-109.2
						C245.3,226.6,214.7,196,176.9,196L176.9,196z"/>
				</g>
				<g>
					<path class="st11" d="M313.8,196c13.2,18.8,21.2,43.1,21.2,69.7c0,59.6-40.1,107.9-89.6,107.9l0-109.2
						C245.4,226.6,276,196,313.8,196z"/>
				</g>
			</g>
			<g>
				<path class="st1" d="M385.9,357.8l-22.4,22.4l28.2,28.2l23.1-21.8L385.9,357.8z"/>
				<path class="st4" d="M382.7,203.3c-47.2-47.2-124.1-47.2-171.3,0c-47.2,47.2-47.2,124.1,0,171.3l14.4-4.3
					c-0.2-0.2,0.3-10,0.1-10.2c-39.3-39.3-39.3-103.1,0-142.4c19.6-19.6,45.4-29.4,71.2-29.4s51.6,9.8,71.2,29.4
					c39.3,39.3,39.3,103.1,0,142.4c-0.4,0.4,0.7,13.1,0.3,13.5l14.2,1C429.9,327.4,429.9,250.5,382.7,203.3L382.7,203.3z"/>
				<g>
					<path class="st6" d="M297,410c-31,0-62.1-11.8-85.7-35.4l14.5-14.5c39.3,39.3,103.1,39.3,142.4,0l14.5,14.5
						C359,398.2,328,410,297,410z"/>
				</g>
				<path class="st8" d="M413.9,360.4l-28.1,28.1l10.5,12.8l6.2,3.9c9.7-9.1,18.6-18.9,26.8-29.5L413.9,360.4z"/>
				<path class="st12" d="M385.8,388.5l-17.4,17.4l15.4,15.4c6.5-5,12.7-10.4,18.7-16L385.8,388.5z"/>
			</g>
		</g>
	</g>
</g>
</svg>
