<?xml version="1.0" encoding="utf-8"?>
<!-- Generator: Adobe Illustrator 23.0.1, SVG Export Plug-In . SVG Version: 6.00 Build 0)  -->
<svg version="1.1" id="Bold" xmlns="http://www.w3.org/2000/svg" xmlns:xlink="http://www.w3.org/1999/xlink" x="0px" y="0px"
	 viewBox="0 0 512 512" style="enable-background:new 0 0 512 512;" xml:space="preserve">
<g>
	<path d="M465.6,192h-46.7v46.4h-46.4v46.7h46.4v46.4h46.7v-46.4H512v-46.7h-46.4V192z"/>
	<path d="M160,416c92.3,0,153.7-64.8,153.7-156.3c0-10.5-1.1-18.6-2.6-26.6H160v55h90.8c-3.7,23.4-27.5,69-90.8,69
		c-54.5,0-99.1-45.2-99.1-101.1s44.5-101.1,99.1-101.1c31.2,0,51.9,13.3,63.7,24.7l43.4-41.7c-28-26.2-64-41.9-107.2-41.9
		C71.6,96,0,167.6,0,256S71.6,416,160,416L160,416z"/>
</g>
</svg>
