<?xml version="1.0" encoding="utf-8"?>
<!-- Generator: Adobe Illustrator 23.0.1, SVG Export Plug-In . SVG Version: 6.00 Build 0)  -->
<svg version="1.1" id="Bold" xmlns="http://www.w3.org/2000/svg" xmlns:xlink="http://www.w3.org/1999/xlink" x="0px" y="0px"
	 viewBox="0 0 512 512" style="enable-background:new 0 0 512 512;" xml:space="preserve">
<g>
	<path d="M427.6,427.7L427.6,427.7L427.6,427.7l0.1-126c0-61.6-13.3-109.1-85.3-109.1c-34.6,0-57.9,19-67.4,37h-1v-31.3h-68.3v229.3
		h71.1V314.2c0-29.9,5.7-58.8,42.7-58.8c36.5,0,37,34.1,37,60.7v111.6L427.6,427.7z"/>
	<path d="M89.9,198.4h71.2v229.3H89.9V198.4z"/>
	<path d="M125.5,84.3c-22.8,0-41.2,18.5-41.2,41.2s18.5,41.6,41.2,41.6s41.2-18.9,41.2-41.6C166.7,102.8,148.3,84.3,125.5,84.3z"/>
</g>
</svg>
